<svg width="1600" height="1200" viewBox="0 0 1600 1200" fill="none" xmlns="http://www.w3.org/2000/svg">
<rect width="1600" height="1200" fill="#F7FAFC"/>
<rect width="1600" height="1200" fill="#F7FAFC"/>
<mask id="mask0_103_347" style="mask-type:alpha" maskUnits="userSpaceOnUse" x="0" y="0" width="1600" height="1200">
<rect width="1600" height="1200" fill="white"/>
</mask>
<g mask="url(#mask0_103_347)">
<path d="M800 800.689C800 911.145 710.456 1000.69 600 1000.69V800.689H800Z" fill="#FF5722"/>
<path d="M600 1200.69C489.544 1200.69 400 1111.15 400 1000.69H600V1200.69Z" fill="#FF5722"/>
<path d="M1000 1000.69V1000.69C1000 1111.15 910.456 1200.69 800 1200.69V1200.69V1000.69H1000Z" fill="#E2E8F0"/>
<path d="M0 1000.69V1000.69C1.44847e-05 890.233 89.543 800.689 200 800.689V800.689V1000.69H0Z" fill="#FF5722"/>
<path d="M1400 400V400C1289.54 400 1200 310.456 1200 200V200H1400V400Z" fill="#FF9800"/>
<path d="M1400 800.689C1289.54 800.689 1200 711.145 1200 600.689H1400V800.689Z" fill="#2D3748"/>
<path d="M1000 400.689C1110.46 400.689 1200 490.233 1200 600.689H1000V400.689Z" fill="#CDDC39"/>
<path d="M600 0C600 110.456 510.456 200 400 200V0L600 0Z" fill="#FF5722"/>
<path d="M600 1000.69V1000.69C489.542 1000.69 400 911.145 400 800.689V800.689H600V1000.69Z" fill="#2D3748"/>
<path d="M599.999 902.758V902.758C543.627 902.758 497.93 857.062 497.93 800.689V800.689H599.999V902.758Z" fill="#8BC34A"/>
<path d="M200 1200.69V1200.69C89.543 1200.69 -2.28239e-05 1111.15 0 1000.69V1000.69H200V1200.69Z" fill="#CDDC39"/>
<path d="M199.999 1102.76V1102.76C143.628 1102.76 97.9297 1057.06 97.9297 1000.69V1000.69H199.999V1102.76Z" fill="#2D3748"/>
<path d="M800 1200.69V1200.69C689.542 1200.69 600 1111.15 600 1000.69V1000.69H800V1200.69Z" fill="#8BC34A"/>
<path d="M799.999 1102.76V1102.76C743.627 1102.76 697.93 1057.06 697.93 1000.69V1000.69H799.999V1102.76Z" fill="#CDDC39"/>
<path d="M200 400.689V500.689C200 555.917 155.228 600.689 100 600.689V500.689C100 445.461 144.772 400.689 200 400.689Z" fill="#CDDC39"/>
<path d="M300 600.689V500.689C300 445.461 255.228 400.689 200 400.689V400.689V500.689C200 555.917 244.772 600.689 300 600.689V600.689Z" fill="#2D3748"/>
<path d="M1397 82H1297C1241.77 82 1197 126.772 1197 182V182H1297C1352.23 182 1397 137.228 1397 82V82Z" fill="#2D3748"/>
<path d="M100 500.689V600.689C100 655.917 55.2284 700.689 0 700.689V700.689L4.37114e-06 600.689C6.78524e-06 545.461 44.7716 500.689 100 500.689V500.689Z" fill="#8BC34A"/>
<path d="M1597 101H1497C1441.77 101 1397 145.772 1397 201V201H1497C1552.23 201 1597 156.228 1597 101V101Z" fill="#FF9800"/>
<path d="M1597 101H1497C1441.77 101 1397 56.2284 1397 1V1L1497 1.00001C1552.23 1.00001 1597 45.7716 1597 101V101Z" fill="#FF5722"/>
<path d="M600 500H700C755.228 500 800 455.228 800 400V400H700C644.772 400 600 444.772 600 500V500Z" fill="#2D3748"/>
<path d="M500 600H600C655.228 600 700 555.228 700 500V500H600C544.772 500 500 544.772 500 600V600Z" fill="#8BC34A"/>
<path d="M600 0V200C600 310.456 689.544 400 800 400V400V200C800 89.544 710.456 0 600 0V0Z" fill="#FF5722"/>
<path d="M700 200.689V299.841C700 355.157 744.772 400 800 400V400V300.848C800 245.531 755.228 200.689 700 200.689V200.689Z" fill="#2D3748"/>
<path d="M7.78062e-06 400.69L0 200.345C-4.29712e-06 89.6984 89.543 0 200 0V0V200.345C200 310.991 110.457 400.69 7.78062e-06 400.69V400.69Z" fill="#2D3748"/>
<path d="M100 199.31V100.159C100 44.8433 144.772 0 200 0V0V99.1515C200 154.469 155.228 199.31 100 199.31V199.31Z" fill="#8BC34A"/>
<path d="M400 1200.69V1000.69C400 890.233 310.456 800.689 200 800.689V800.689L200 1000.69C200 1111.15 289.544 1200.69 400 1200.69V1200.69Z" fill="#E2E8F0"/>
<path d="M300 1000V900.849C300 845.533 255.228 800.69 200 800.69V800.69L200 899.841C200 955.159 244.772 1000 300 1000V1000Z" fill="#FF9800"/>
<path d="M400 0V200C400 310.456 310.456 400 200 400V400V200C200 89.544 289.544 0 400 0V0Z" fill="#E2E8F0"/>
<path d="M300 201.379V300.53C300 355.846 255.228 400.689 200 400.689V400.689V301.538C200 246.22 244.772 201.379 300 201.379V201.379Z" fill="#CDDC39"/>
<path d="M1200 200H1000C889.544 200 800 289.544 800 400V400H1000C1110.46 400 1200 310.456 1200 200V200Z" fill="#2D3748"/>
<path d="M1000 300H900.506C844.998 300 800 344.772 800 400V400H899.494C955.004 400 1000 355.228 1000 300V300Z" fill="#E2E8F0"/>
<path d="M1200 600.689H1000C889.544 600.689 800 690.233 800 800.689V800.689H1000C1110.46 800.689 1200 711.145 1200 600.689V600.689Z" fill="#E2E8F0"/>
<path d="M999.31 700.689H900.159C844.843 700.689 800 745.461 800 800.689V800.689H899.151C954.469 800.689 999.31 755.917 999.31 700.689V700.689Z" fill="#2D3748"/>
<path d="M600 600.689H400C289.544 600.689 200 690.233 200 800.689V800.689H400C510.456 800.689 600 711.145 600 600.689V600.689Z" fill="#E2E8F0"/>
<path d="M399.31 700.689H300.159C244.843 700.689 200 745.461 200 800.689V800.689H299.151C354.469 800.689 399.31 755.917 399.31 700.689V700.689Z" fill="#FF5722"/>
<path d="M800 800.689H1000C1110.46 800.689 1200 890.233 1200 1000.69V1000.69H1000C889.544 1000.69 800 911.145 800 800.689V800.689Z" fill="#2D3748"/>
<path d="M1000 900.689H1099.49C1155 900.689 1200 945.461 1200 1000.69V1000.69H1100.51C1045 1000.69 1000 955.917 1000 900.689V900.689Z" fill="#8BC34A"/>
<path d="M1200 1200.69V1000.69C1200 890.233 1289.54 800.689 1400 800.689V800.689V1000.69C1400 1111.15 1310.46 1200.69 1200 1200.69V1200.69Z" fill="#8BC34A"/>
<path d="M1300 1000V900.847C1300 845.532 1344.77 800.689 1400 800.689V800.689V899.842C1400 955.157 1355.23 1000 1300 1000V1000Z" fill="#2D3748"/>
<path d="M1140.69 800C1140.69 766.862 1167.55 740 1200.69 740V740C1233.83 740 1260.69 766.862 1260.69 800V800C1260.69 833.138 1233.83 860 1200.69 860V860C1167.55 860 1140.69 833.138 1140.69 800V800Z" fill="#FF5722"/>
<path d="M1171.04 800.346C1171.04 783.778 1184.47 770.346 1201.04 770.346V770.346C1217.6 770.346 1231.04 783.778 1231.04 800.346V800.346C1231.04 816.914 1217.6 830.346 1201.04 830.346V830.346C1184.47 830.346 1171.04 816.914 1171.04 800.346V800.346Z" fill="#FF9800"/>
<path d="M719.309 547.242C719.309 530.674 732.741 517.242 749.309 517.242V517.242C765.877 517.242 779.309 530.674 779.309 547.242V547.242C779.309 563.81 765.877 577.242 749.309 577.242V577.242C732.741 577.242 719.309 563.81 719.309 547.242V547.242Z" fill="#FF5722"/>
<path d="M519.309 450.689C519.309 434.121 532.741 420.689 549.309 420.689V420.689C565.877 420.689 579.309 434.121 579.309 450.689V450.689C579.309 467.257 565.877 480.689 549.309 480.689V480.689C532.741 480.689 519.309 467.257 519.309 450.689V450.689Z" fill="#8BC34A"/>
<path d="M1222.07 51.3789C1222.07 34.8109 1235.5 21.3789 1252.07 21.3789V21.3789C1268.64 21.3789 1282.07 34.8109 1282.07 51.3789V51.3789C1282.07 67.9469 1268.64 81.3789 1252.07 81.3789V81.3789C1235.5 81.3789 1222.07 67.9469 1222.07 51.3789V51.3789Z" fill="#8BC34A"/>
<path d="M1318.62 51.3789C1318.62 34.8109 1332.05 21.3789 1348.62 21.3789V21.3789C1365.19 21.3789 1378.62 34.8109 1378.62 51.3789V51.3789C1378.62 67.9469 1365.19 81.3789 1348.62 81.3789V81.3789C1332.05 81.3789 1318.62 67.9469 1318.62 51.3789V51.3789Z" fill="#CDDC39"/>
<path d="M174.484 745.172C174.484 761.74 161.053 775.172 144.484 775.172V775.172C127.916 775.172 114.484 761.74 114.484 745.172V745.172C114.484 728.604 127.916 715.172 144.484 715.172V715.172C161.053 715.172 174.484 728.604 174.484 745.172V745.172Z" fill="#FF5722"/>
<path d="M80 745.172C80 761.74 66.5686 775.172 50 775.172V775.172C33.4314 775.172 20 761.74 20 745.172V745.172C20 728.604 33.4314 715.172 50 715.172V715.172C66.5686 715.172 80 728.604 80 745.172V745.172Z" fill="#2D3748"/>
<path d="M174.484 650.689C174.484 667.257 161.053 680.689 144.484 680.689V680.689C127.916 680.689 114.484 667.257 114.484 650.689V650.689C114.484 634.121 127.916 620.689 144.484 620.689V620.689C161.053 620.689 174.484 634.121 174.484 650.689V650.689Z" fill="#8BC34A"/>
<path d="M1162.07 389.311C1162.07 372.743 1175.5 359.311 1192.07 359.311V359.311C1208.64 359.311 1222.07 372.743 1222.07 389.311V389.311C1222.07 405.879 1208.64 419.311 1192.07 419.311V419.311C1175.5 419.311 1162.07 405.879 1162.07 389.311V389.311Z" fill="#FF5722"/>
<path d="M773.102 949.654C773.102 934.799 785.143 922.758 799.998 922.758C814.853 922.758 826.895 934.799 826.895 949.654C826.895 964.509 814.853 976.551 799.998 976.551C785.143 976.551 773.102 964.509 773.102 949.654Z" fill="#FF5722"/>
<path d="M23.4492 450.346C23.4492 435.491 35.4913 423.449 50.3458 423.449V423.449C65.2002 423.449 77.2423 435.491 77.2423 450.346V450.346C77.2423 465.201 65.2002 477.242 50.3458 477.242V477.242C35.4913 477.242 23.4492 465.201 23.4492 450.346V450.346Z" fill="#FF5722"/>
<path d="M800 500C800 444.772 844.772 400 900 400V400C955.228 400 1000 444.772 1000 500V500C1000 555.228 955.228 600 900 600H800V500Z" fill="#FF5722"/>
<path d="M800 548.965C800 520.4 823.158 497.242 851.725 497.242V497.242C880.291 497.242 903.448 520.4 903.448 548.965V548.965C903.448 577.533 880.291 600.69 851.725 600.69H800V548.965Z" fill="#FF9800"/>
<path d="M1400 500C1400 444.772 1355.23 400 1300 400V400C1244.77 400 1200 444.772 1200 500V500C1200 555.228 1244.77 600 1300 600H1400V500Z" fill="#FF5722"/>
<path d="M1400 548.274C1400 519.708 1376.84 496.551 1348.27 496.551V496.551C1319.71 496.551 1296.55 519.708 1296.55 548.274V548.274C1296.55 576.841 1319.71 599.999 1348.27 599.999H1400V548.274Z" fill="#FF9800"/>
<path d="M1200 100C1200 44.772 1155.23 0 1100 0V0C1044.77 0 1000 44.772 1000 100V100C1000 155.228 1044.77 200 1100 200H1200V100Z" fill="#CDDC39"/>
<path d="M1200 148.274C1200 119.708 1176.84 96.5508 1148.27 96.5508V96.5508C1119.71 96.5508 1096.55 119.708 1096.55 148.274V148.274C1096.55 176.841 1119.71 199.999 1148.27 199.999H1200V148.274Z" fill="#FF5722"/>
<path d="M800 100C800 155.228 844.772 200 900 200V200C955.228 200 1000 155.228 1000 100V100C1000 44.772 955.228 0 900 0H800V100Z" fill="#8BC34A"/>
<path d="M800 51.7251C800 80.2906 823.158 103.448 851.725 103.448V103.448C880.291 103.448 903.448 80.2906 903.448 51.7251V51.7251C903.448 23.1576 880.291 0 851.725 0H800V51.7251Z" fill="#2D3748"/>
<path d="M400 300C400 244.772 444.772 200 500 200V200C555.228 200 600 244.772 600 300V300C600 355.228 555.228 400 500 400V400C444.772 400 400 355.228 400 300V300Z" fill="#FF9800"/>
<path d="M444.828 300.345C444.828 269.685 469.685 244.828 500.345 244.828V244.828C531.006 244.828 555.863 269.685 555.863 300.345V300.345C555.863 331.006 531.006 355.863 500.345 355.863V355.863C469.685 355.863 444.828 331.006 444.828 300.345V300.345Z" fill="#2D3748"/>
<path d="M1000 1100.69C1000 1045.46 1044.77 1000.69 1100 1000.69V1000.69C1155.23 1000.69 1200 1045.46 1200 1100.69V1100.69C1200 1155.92 1155.23 1200.69 1100 1200.69V1200.69C1044.77 1200.69 1000 1155.92 1000 1100.69V1100.69Z" fill="#FF5722"/>
<path d="M1044.83 1099.66C1044.83 1069 1069.68 1044.14 1100.35 1044.14V1044.14C1131.01 1044.14 1155.86 1069 1155.86 1099.66V1099.66C1155.86 1130.32 1131.01 1155.17 1100.35 1155.17V1155.17C1069.68 1155.17 1044.83 1130.32 1044.83 1099.66V1099.66Z" fill="#2D3748"/>
<path d="M800.002 700.689C800.002 755.917 755.384 800.689 700.347 800.689C645.309 800.689 600.691 755.917 600.691 700.689C600.691 645.461 645.309 600.689 700.347 600.689H800.002V700.689Z" fill="#CDDC39"/>
<path d="M400 600.689C455.228 600.689 500 555.917 500 500.689C500 445.461 455.228 400.689 400 400.689C344.772 400.689 300 445.461 300 500.689V600.689H400Z" fill="#FF5722"/>
<path d="M1399.31 400C1399.31 289.544 1488.85 200 1599.31 200V400H1399.31Z" fill="#FF5722"/>
<path d="M1599.31 800V800C1488.85 800 1399.31 710.456 1399.31 600V600H1599.31V800Z" fill="#E2E8F0"/>
<path d="M1399.31 600V600C1399.31 489.542 1488.85 400 1599.31 400V400V600H1399.31Z" fill="#8BC34A"/>
<path d="M1497.24 600.001V600.001C1497.24 543.629 1542.94 497.932 1599.31 497.932V497.932V600.001H1497.24Z" fill="#CDDC39"/>
<path d="M1400 1101C1400 1156.23 1444.77 1201 1500 1201V1201C1555.23 1201 1600 1156.23 1600 1101V1101C1600 1045.77 1555.23 1001 1500 1001H1400V1101Z" fill="#FF9800"/>
<path d="M1400 1052.73C1400 1081.29 1423.16 1104.45 1451.73 1104.45V1104.45C1480.29 1104.45 1503.45 1081.29 1503.45 1052.73V1052.73C1503.45 1024.16 1480.29 1001 1451.73 1001H1400V1052.73Z" fill="#FF5722"/>
<path d="M1499.31 800C1554.54 800 1599.31 844.772 1599.31 900V900C1599.31 955.228 1554.54 1000 1499.31 1000V1000C1444.08 1000 1399.31 955.228 1399.31 900V900C1399.31 844.772 1444.08 800 1499.31 800V800Z" fill="#FF5722"/>
<path d="M1500.35 844.828C1531.01 844.828 1555.86 869.685 1555.86 900.345V900.345C1555.86 931.006 1531.01 955.863 1500.35 955.863V955.863C1469.69 955.863 1444.83 931.006 1444.83 900.345V900.345C1444.83 869.685 1469.69 844.828 1500.35 844.828V844.828Z" fill="#2D3748"/>
</g>
</svg>
