<svg width="1600" height="1200" viewBox="0 0 1600 1200" fill="none" xmlns="http://www.w3.org/2000/svg">
<rect width="1600" height="1200" fill="#171923"/>
<rect width="1600" height="1200" fill="#171923"/>
<mask id="mask0_107_1540" style="mask-type:alpha" maskUnits="userSpaceOnUse" x="0" y="0" width="1600" height="1200">
<rect width="1600" height="1200" fill="white"/>
</mask>
<g mask="url(#mask0_107_1540)">
<rect y="200" width="200" height="200" fill="#EF5350"/>
<rect x="1400" y="800" width="200" height="200" fill="#2D3748"/>
<path fill-rule="evenodd" clip-rule="evenodd" d="M1400 800L1600 1000H1400V800Z" fill="#FFCA28"/>
<path fill-rule="evenodd" clip-rule="evenodd" d="M499 826C540.421 826 574 859.579 574 901C574 942.421 540.421 976 499 976C457.579 976 424 942.421 424 901C424 859.579 457.579 826 499 826Z" fill="#FFCA28"/>
<path fill-rule="evenodd" clip-rule="evenodd" d="M200 800H399.377L600 1000H200V800Z" fill="#171923"/>
<path fill-rule="evenodd" clip-rule="evenodd" d="M400 800L200 1000H400V800Z" fill="#29B6F6"/>
<path fill-rule="evenodd" clip-rule="evenodd" d="M299 856H300C324.853 856 345 876.147 345 901C345 925.853 324.853 946 300 946H299C274.147 946 254 925.853 254 901C254 876.147 274.147 856 299 856Z" fill="#7E57C2"/>
<path fill-rule="evenodd" clip-rule="evenodd" d="M1299 26C1340.42 26 1374 59.5786 1374 101C1374 142.421 1340.42 176 1299 176C1257.58 176 1224 142.421 1224 101C1224 59.5786 1257.58 26 1299 26Z" fill="#2D3748"/>
<path fill-rule="evenodd" clip-rule="evenodd" d="M1000 0H1199.38L1400 200H1000V0Z" fill="#29B6F6"/>
<path fill-rule="evenodd" clip-rule="evenodd" d="M1200 0L1000 200H1200V0Z" fill="#171923"/>
<path fill-rule="evenodd" clip-rule="evenodd" d="M1099 56H1100C1124.85 56 1145 76.1472 1145 101C1145 125.853 1124.85 146 1100 146H1099C1074.15 146 1054 125.853 1054 101C1054 76.1472 1074.15 56 1099 56Z" fill="#7E57C2"/>
<rect x="600" y="800" width="200" height="400" fill="#29B6F6"/>
<rect x="700" y="900" width="100" height="100.251" fill="#5C6BC0"/>
<rect x="600" y="1000" width="100" height="100.251" fill="#7E57C2"/>
<path fill-rule="evenodd" clip-rule="evenodd" d="M1600 200V400H1400V200L1600 200Z" fill="#5C6BC0"/>
<rect x="1500" y="300" width="100" height="100" transform="rotate(90 1500 300)" fill="#EF5350"/>
<rect y="800" width="200" height="200" fill="#171923"/>
<rect x="1400" y="1000" width="200" height="200" fill="#7E57C2"/>
<rect x="800" width="200" height="200" fill="#171923"/>
<rect x="800" y="1000" width="200" height="200" transform="rotate(-90 800 1000)" fill="#5C6BC0"/>
<rect x="800" y="1000" width="100" height="200" transform="rotate(-90 800 1000)" fill="#EF5350"/>
<rect x="600" width="200" height="200" fill="#FFCA28"/>
<rect x="1000" y="800" width="200" height="200" fill="#FFCA28"/>
<path fill-rule="evenodd" clip-rule="evenodd" d="M1200 800L1000 1000H1200V800Z" fill="#2D3748"/>
<rect x="400" y="400" width="200" height="200" fill="#5C6BC0"/>
<rect x="400" y="400" width="101" height="200" fill="#EF5350"/>
<rect x="400" y="1000" width="200" height="200" fill="#FFCA28"/>
<rect x="1000" y="400" width="200" height="200" fill="#171923"/>
<path fill-rule="evenodd" clip-rule="evenodd" d="M1050 500C1077.61 500 1100 522.386 1100 550C1100 577.614 1077.61 600 1050 600C1022.39 600 1000 577.614 1000 550C1000 522.386 1022.39 500 1050 500Z" fill="#EF5350"/>
<rect x="1100" y="400" width="100" height="100" fill="#29B6F6"/>
<rect x="800" y="600" width="200" height="200" fill="#171923"/>
<path fill-rule="evenodd" clip-rule="evenodd" d="M900 655C924.853 655 945 675.147 945 700C945 724.853 924.853 745 900 745C875.147 745 855 724.853 855 700C855 675.147 875.147 655 900 655Z" fill="#2D3748"/>
<rect x="1000" y="600" width="200" height="200" fill="#29B6F6"/>
<rect x="1030" y="630" width="140" height="140" fill="#171923"/>
<path fill-rule="evenodd" clip-rule="evenodd" d="M1100 700L1000 600H1100V700Z" fill="#7E57C2"/>
<rect y="600" width="200" height="200" transform="rotate(-90 0 600)" fill="#29B6F6"/>
<rect x="30" y="570" width="140" height="140" transform="rotate(-90 30 570)" fill="#171923"/>
<path fill-rule="evenodd" clip-rule="evenodd" d="M100 500L0 600V500H100Z" fill="#7E57C2"/>
<rect x="600" width="200" height="200" transform="rotate(90 600 0)" fill="#29B6F6"/>
<rect x="570" y="30" width="140" height="140" transform="rotate(90 570 30)" fill="#171923"/>
<path fill-rule="evenodd" clip-rule="evenodd" d="M500 100L600 0V100L500 100Z" fill="#7E57C2"/>
<path fill-rule="evenodd" clip-rule="evenodd" d="M1400 600V800H1200V600H1400Z" fill="#5C6BC0"/>
<path fill-rule="evenodd" clip-rule="evenodd" d="M1200 800L1400 600V800H1200Z" fill="#EF5350"/>
<path fill-rule="evenodd" clip-rule="evenodd" d="M1375 702C1375 743.421 1341.42 777 1300 777C1258.58 777 1225 743.421 1225 702C1225 660.579 1258.58 627 1300 627C1341.42 627 1375 660.579 1375 702Z" fill="#171923"/>
<path fill-rule="evenodd" clip-rule="evenodd" d="M0 600H200V800H0V600Z" fill="#171923"/>
<path fill-rule="evenodd" clip-rule="evenodd" d="M200 600L0 800H200V600Z" fill="#2D3748"/>
<path fill-rule="evenodd" clip-rule="evenodd" d="M200 400L400 600H200V400Z" fill="#7E57C2"/>
<rect x="300" y="400" width="100" height="100" fill="#29B6F6"/>
<path fill-rule="evenodd" clip-rule="evenodd" d="M400 200L600 400H400V200Z" fill="#7E57C2"/>
<path fill-rule="evenodd" clip-rule="evenodd" d="M200 600L400 800H200V600Z" fill="#EF5350"/>
<path fill-rule="evenodd" clip-rule="evenodd" d="M1000 600L800 400H1000V600Z" fill="#FFCA28"/>
<rect x="800" y="500" width="100" height="100" fill="#29B6F6"/>
<path fill-rule="evenodd" clip-rule="evenodd" d="M1000 500L900 400H1000V500Z" fill="#2D3748"/>
<path fill-rule="evenodd" clip-rule="evenodd" d="M400 0L200 200V0L400 0Z" fill="#FFCA28"/>
<rect x="300" y="200" width="100" height="100" transform="rotate(-90 300 200)" fill="#2D3748"/>
<path fill-rule="evenodd" clip-rule="evenodd" d="M300 0L200 100V0L300 0Z" fill="#2D3748"/>
<path fill-rule="evenodd" clip-rule="evenodd" d="M1600 600L1400 800V600H1600Z" fill="#FFCA28"/>
<rect x="1500" y="800" width="100" height="100" transform="rotate(-90 1500 800)" fill="#29B6F6"/>
<path fill-rule="evenodd" clip-rule="evenodd" d="M1500 600L1400 700V600H1500Z" fill="#2D3748"/>
<path fill-rule="evenodd" clip-rule="evenodd" d="M800 400L600 600H800V400Z" fill="#2D3748"/>
<rect x="600" y="400" width="100" height="100" fill="#FFCA28"/>
<path fill-rule="evenodd" clip-rule="evenodd" d="M1400 1000L1200 1200H1400V1000Z" fill="#FFCA28"/>
<rect x="1200" y="1000" width="100" height="100" fill="#7E57C2"/>
<path fill-rule="evenodd" clip-rule="evenodd" d="M1400 1000L1200 800H1400V1000Z" fill="#5C6BC0"/>
<path fill-rule="evenodd" clip-rule="evenodd" d="M200 200L0 0H200V200Z" fill="#5C6BC0"/>
<rect x="800" y="800" width="200" height="200" transform="rotate(-180 800 800)" fill="#5C6BC0"/>
<path fill-rule="evenodd" clip-rule="evenodd" d="M700.5 735.327L632 600H769L700.5 735.327Z" fill="#171923"/>
<path fill-rule="evenodd" clip-rule="evenodd" d="M750 689.555L700 600H800L750 689.555Z" fill="#EF5350"/>
<path fill-rule="evenodd" clip-rule="evenodd" d="M650 689.555L600 600H700L650 689.555Z" fill="#EF5350"/>
<rect x="200" y="1000" width="200" height="200" transform="rotate(90 200 1000)" fill="#7E57C2"/>
<path fill-rule="evenodd" clip-rule="evenodd" d="M135 1099.5L0 1168L0 1031L135 1099.5Z" fill="#29B6F6"/>
<path fill-rule="evenodd" clip-rule="evenodd" d="M90 1050L0 1100L0 1000L90 1050Z" fill="#2D3748"/>
<path fill-rule="evenodd" clip-rule="evenodd" d="M90 1149L0 1199L0 1099L90 1149Z" fill="#2D3748"/>
<rect x="1400" y="200" width="200" height="200.005" transform="rotate(-90 1400 200)" fill="#7E57C2"/>
<path fill-rule="evenodd" clip-rule="evenodd" d="M1464.5 100.002L1600.5 31.502V168.502L1464.5 100.002Z" fill="#29B6F6"/>
<path fill-rule="evenodd" clip-rule="evenodd" d="M1510 150L1600 100V200L1510 150Z" fill="#2D3748"/>
<path fill-rule="evenodd" clip-rule="evenodd" d="M1510 50L1600 0V100L1510 50Z" fill="#2D3748"/>
<rect x="400" y="400" width="200" height="200" transform="rotate(-180 400 400)" fill="#171923"/>
<path fill-rule="evenodd" clip-rule="evenodd" d="M300.5 336.684L232 200L369 200L300.5 336.684Z" fill="#FFCA28"/>
<path fill-rule="evenodd" clip-rule="evenodd" d="M900 1000L1000 1200H800L900 1000Z" fill="#FFCA28"/>
<path fill-rule="evenodd" clip-rule="evenodd" d="M1300 400C1355.23 400 1400 444.772 1400 500C1400 555.228 1355.23 600 1300 600C1244.77 600 1200 555.228 1200 500C1200 444.772 1244.77 400 1300 400Z" fill="#2D3748"/>
<path fill-rule="evenodd" clip-rule="evenodd" d="M1300 450C1327.61 450 1350 472.386 1350 500C1350 527.614 1327.61 550 1300 550C1272.39 550 1250 527.614 1250 500C1250 472.386 1272.39 450 1300 450Z" fill="#171923"/>
<path fill-rule="evenodd" clip-rule="evenodd" d="M700 200C755.228 200 800 244.772 800 300C800 355.228 755.228 400 700 400C644.772 400 600 355.228 600 300C600 244.772 644.772 200 700 200Z" fill="#EF5350"/>
<path fill-rule="evenodd" clip-rule="evenodd" d="M700 250C727.614 250 750 272.386 750 300C750 327.614 727.614 350 700 350C672.386 350 650 327.614 650 300C650 272.386 672.386 250 700 250Z" fill="#5C6BC0"/>
<path fill-rule="evenodd" clip-rule="evenodd" d="M1100 1000C1155.23 1000 1200 1044.77 1200 1100C1200 1155.23 1155.23 1200 1100 1200C1044.77 1200 1000 1155.23 1000 1100C1000 1044.77 1044.77 1000 1100 1000Z" fill="#29B6F6"/>
<path fill-rule="evenodd" clip-rule="evenodd" d="M1100 200C1155.23 200 1200 244.772 1200 300C1200 355.228 1155.23 400 1100 400C1044.77 400 1000 355.228 1000 300C1000 244.772 1044.77 200 1100 200Z" fill="#FFCA28"/>
<rect x="1100" y="300" width="100" height="100" fill="#171923"/>
<path fill-rule="evenodd" clip-rule="evenodd" d="M300 1000C355.228 1000 400 1044.77 400 1100C400 1155.23 355.228 1200 300 1200C244.772 1200 200 1155.23 200 1100C200 1044.77 244.772 1000 300 1000Z" fill="#2D3748"/>
<rect x="300" y="1100" width="100" height="100" fill="#5C6BC0"/>
<path fill-rule="evenodd" clip-rule="evenodd" d="M900 300L800 200H900V300Z" fill="#EF5350"/>
<path fill-rule="evenodd" clip-rule="evenodd" d="M900 300L1000 400H900V300Z" fill="#EF5350"/>
<path fill-rule="evenodd" clip-rule="evenodd" d="M900 300L800 400V300H900Z" fill="#EF5350"/>
<path fill-rule="evenodd" clip-rule="evenodd" d="M900 300L1000 200V300H900Z" fill="#EF5350"/>
<path fill-rule="evenodd" clip-rule="evenodd" d="M1500 500L1400 400H1500V500Z" fill="#29B6F6"/>
<path fill-rule="evenodd" clip-rule="evenodd" d="M1500 500L1600 600H1500V500Z" fill="#29B6F6"/>
<path fill-rule="evenodd" clip-rule="evenodd" d="M1500 500L1400 600V500H1500Z" fill="#29B6F6"/>
<path fill-rule="evenodd" clip-rule="evenodd" d="M1500 500L1600 400V500H1500Z" fill="#29B6F6"/>
<path fill-rule="evenodd" clip-rule="evenodd" d="M500 700L400 600H500V700Z" fill="#FFCA28"/>
<path fill-rule="evenodd" clip-rule="evenodd" d="M500 600L400 700V600H500Z" fill="#FFCA28"/>
<path fill-rule="evenodd" clip-rule="evenodd" d="M600 700L500 800V700H600Z" fill="#FFCA28"/>
<path fill-rule="evenodd" clip-rule="evenodd" d="M600 800L500 700H600V800Z" fill="#FFCA28"/>
<path fill-rule="evenodd" clip-rule="evenodd" d="M1300 300L1200 200H1300V300Z" fill="#FFCA28"/>
<path fill-rule="evenodd" clip-rule="evenodd" d="M1300 200L1200 300V200H1300Z" fill="#FFCA28"/>
<path fill-rule="evenodd" clip-rule="evenodd" d="M1400 300L1300 400V300H1400Z" fill="#29B6F6"/>
<path fill-rule="evenodd" clip-rule="evenodd" d="M1400 400L1300 300H1400V400Z" fill="#29B6F6"/>
</g>
</svg>
