<svg width="1600" height="1200" viewBox="0 0 1600 1200" fill="none" xmlns="http://www.w3.org/2000/svg">
<rect width="1600" height="1200" fill="#F7FAFC"/>
<rect width="1600" height="1200" fill="#F7FAFC"/>
<mask id="mask0_103_185" style="mask-type:alpha" maskUnits="userSpaceOnUse" x="0" y="0" width="1600" height="1200">
<rect width="1600" height="1200" fill="#FBF4E2"/>
</mask>
<g mask="url(#mask0_103_185)">
<path fill-rule="evenodd" clip-rule="evenodd" d="M1544.29 478.291C1544.29 459.279 1528.89 443.866 1509.87 443.866C1490.86 443.866 1475.46 459.279 1475.46 478.291C1475.46 497.304 1490.86 512.717 1509.87 512.717C1528.89 512.717 1544.29 497.304 1544.29 478.291ZM1509.87 402.555C1551.7 402.555 1585.59 436.463 1585.59 478.291C1585.59 520.12 1551.7 554.028 1509.87 554.028C1468.05 554.028 1434.16 520.12 1434.16 478.291C1434.16 436.463 1468.05 402.555 1509.87 402.555Z" fill="#FF5722"/>
<path fill-rule="evenodd" clip-rule="evenodd" d="M1508.4 498.627C1497.02 498.627 1487.78 489.39 1487.78 477.998C1487.78 466.605 1497.02 457.369 1508.4 457.369C1519.79 457.369 1529.03 466.605 1529.03 477.998C1529.03 489.39 1519.79 498.627 1508.4 498.627Z" fill="#3F51B5"/>
<path fill-rule="evenodd" clip-rule="evenodd" d="M243.938 1179.96C243.938 1168.57 253.171 1159.33 264.56 1159.33H388.296C399.685 1159.33 408.919 1168.57 408.919 1179.96C408.919 1191.35 399.685 1200.59 388.296 1200.59H264.56C253.171 1200.59 243.938 1191.35 243.938 1179.96Z" fill="#FFC107"/>
<path fill-rule="evenodd" clip-rule="evenodd" d="M450.163 665.129C450.163 706.958 416.309 740.866 374.546 740.866H237.062C195.299 740.866 161.445 706.958 161.445 665.129C161.445 623.301 195.299 589.393 237.062 589.393H374.546C416.309 589.393 450.163 623.301 450.163 665.129ZM374.546 699.555C393.529 699.555 408.917 684.142 408.917 665.129C408.917 646.117 393.529 630.704 374.546 630.704H237.062C218.079 630.704 202.691 646.117 202.691 665.129C202.691 684.142 218.079 699.555 237.062 699.555H374.546Z" fill="#8BC34A"/>
<path fill-rule="evenodd" clip-rule="evenodd" d="M83.668 1091.55C83.668 1102.95 92.9037 1112.18 104.297 1112.18H168.246C189.92 1112.18 209.465 1103.07 223.256 1088.46C237.047 1103.07 256.592 1112.18 278.266 1112.18H341.527C383.302 1112.18 417.166 1078.32 417.166 1036.54C417.166 1025.15 407.93 1015.92 396.537 1015.92C385.145 1015.92 375.909 1025.15 375.909 1036.54C375.909 1055.53 360.515 1070.93 341.527 1070.93H278.266C259.278 1070.93 243.885 1055.53 243.885 1036.54V897.644C243.885 856.63 210.635 823.381 169.621 823.381V864.638C187.85 864.638 202.627 879.415 202.627 897.644V1036.54C202.627 1055.53 187.234 1070.93 168.246 1070.93H104.297C92.9037 1070.93 83.668 1080.16 83.668 1091.55Z" fill="#8BC34A"/>
<path d="M351.469 925.291C370.476 925.291 385.884 909.878 385.884 890.866C385.884 871.853 370.476 856.44 351.469 856.44C332.461 856.44 317.053 871.853 317.053 890.866C317.053 902.273 307.807 911.521 296.403 911.521C284.999 911.521 275.754 902.273 275.754 890.866C275.754 849.037 309.652 815.129 351.469 815.129C393.285 815.129 427.183 849.037 427.183 890.866C427.183 932.694 393.285 966.602 351.469 966.602C340.065 966.602 330.819 957.354 330.819 945.947C330.819 934.54 340.065 925.291 351.469 925.291Z" fill="#E2E8F0"/>
<path d="M302.92 644.795C328.304 644.795 348.715 624.385 348.715 599.412C348.715 574.439 328.304 554.029 302.92 554.029C288.896 554.029 276.383 560.248 267.963 570.092C260.551 578.759 247.501 579.789 238.817 572.393C230.131 564.996 229.099 551.976 236.511 543.31C252.477 524.643 276.325 512.771 302.92 512.771C350.956 512.771 390.062 551.47 390.062 599.412C390.062 647.354 350.956 686.052 302.92 686.052C291.502 686.052 282.246 676.816 282.246 665.424C282.246 654.031 291.502 644.795 302.92 644.795Z" fill="#E2E8F0"/>
<path fill-rule="evenodd" clip-rule="evenodd" d="M630.937 113.953C644.377 100.545 644.377 78.8075 630.937 65.4002C617.497 51.9928 595.706 51.9928 582.266 65.4002C568.826 78.8075 568.826 100.545 582.266 113.953C590.33 121.997 590.33 135.04 582.266 143.084C574.202 151.128 561.126 151.128 553.063 143.084C523.495 113.588 523.495 65.765 553.063 36.2687C582.631 6.77243 630.571 6.77242 660.139 36.2687C689.708 65.765 689.708 113.588 660.139 143.084C652.075 151.128 639.001 151.128 630.937 143.084C622.873 135.04 622.873 121.997 630.937 113.953Z" fill="#3F51B5"/>
<path fill-rule="evenodd" clip-rule="evenodd" d="M554.017 114.491C562.071 106.435 575.128 106.435 583.182 114.491C591.235 122.547 591.235 135.608 583.182 143.664C575.128 151.721 562.071 151.721 554.017 143.664C545.963 135.608 545.963 122.547 554.017 114.491Z" fill="#FF5722"/>
<path fill-rule="evenodd" clip-rule="evenodd" d="M169.697 864.638C158.308 864.638 149.074 855.402 149.074 844.01C149.074 832.617 158.308 823.381 169.697 823.381C181.086 823.381 190.32 832.617 190.32 844.01C190.32 855.402 181.086 864.638 169.697 864.638Z" fill="#FF5722"/>
<path fill-rule="evenodd" clip-rule="evenodd" d="M110.72 930.944C110.72 911.931 95.3118 896.518 76.3045 896.518C57.2973 896.518 41.8888 911.931 41.8888 930.944C41.8888 949.956 57.2973 965.37 76.3045 965.37C95.3118 965.37 110.72 949.956 110.72 930.944ZM76.3045 855.207C118.121 855.207 152.019 889.115 152.019 930.944C152.019 972.772 118.121 1006.68 76.3045 1006.68C34.4884 1006.68 0.589842 972.772 0.589844 930.944C0.589846 889.115 34.4884 855.207 76.3045 855.207Z" fill="#FFC107"/>
<path d="M139.646 753.286C116.162 753.286 97.1253 772.393 97.1253 795.964V875.813C97.1253 887.218 87.9139 896.464 76.5509 896.464C65.188 896.464 55.9766 887.218 55.9766 875.813V795.964C55.9766 749.584 93.4365 711.984 139.646 711.984V753.286Z" fill="#E2E8F0"/>
<path fill-rule="evenodd" clip-rule="evenodd" d="M76.5992 896.464C65.2096 896.464 55.9766 887.228 55.9766 875.836C55.9766 864.443 65.2096 855.207 76.5992 855.207C87.9889 855.207 97.2219 864.443 97.2219 875.836C97.2219 887.228 87.9889 896.464 76.5992 896.464Z" fill="#FF5722"/>
<path fill-rule="evenodd" clip-rule="evenodd" d="M76.0094 951.279C64.6198 951.279 55.3867 942.043 55.3867 930.65C55.3867 919.258 64.6198 910.021 76.0094 910.021C87.399 910.021 96.6321 919.258 96.6321 930.65C96.6321 942.043 87.399 951.279 76.0094 951.279Z" fill="#FF5722"/>
<path fill-rule="evenodd" clip-rule="evenodd" d="M80.1769 539.242C99.2103 538.994 114.439 523.382 114.192 504.37C113.944 485.359 98.3138 470.146 79.2805 470.394C67.8605 470.543 58.4823 461.415 58.3338 450.008C58.1852 438.602 67.3225 429.233 78.7426 429.085C120.616 428.541 155.002 462.006 155.547 503.833C156.091 545.659 122.588 580.006 80.7148 580.55C69.2948 580.699 59.9166 571.571 59.768 560.164C59.6195 548.757 68.7568 539.389 80.1769 539.242Z" fill="#FFC107"/>
<path fill-rule="evenodd" clip-rule="evenodd" d="M180.64 687.26C161.622 687.26 146.205 702.665 146.205 721.667C146.205 740.669 161.622 756.073 180.64 756.073C255.95 756.073 317.002 817.075 317.002 892.323C317.002 903.724 307.751 912.967 296.341 912.967C284.93 912.967 275.68 903.724 275.68 892.323C275.68 839.876 233.129 797.361 180.64 797.361C138.8 797.361 104.883 763.472 104.883 721.667C104.883 679.862 138.8 645.973 180.64 645.973C192.05 645.973 201.301 655.216 201.301 666.617C201.301 678.017 192.05 687.26 180.64 687.26Z" fill="#FFC107"/>
<path fill-rule="evenodd" clip-rule="evenodd" d="M486.052 1036.78C486.052 1017.83 470.644 1002.47 451.637 1002.47C432.629 1002.47 417.221 1017.83 417.221 1036.78C417.221 1048.15 407.975 1057.37 396.571 1057.37C385.167 1057.37 375.922 1048.15 375.922 1036.78C375.922 995.092 409.82 961.297 451.637 961.297C493.453 961.297 527.351 995.092 527.351 1036.78C527.351 1048.15 518.106 1057.37 506.702 1057.37C495.298 1057.37 486.052 1048.15 486.052 1036.78Z" fill="#3F51B5"/>
<path d="M450.163 669.549C450.163 721.956 492.635 764.441 545.028 764.441C556.417 764.441 565.65 773.677 565.65 785.069C565.65 796.462 556.417 805.698 545.028 805.698C469.857 805.698 408.918 744.742 408.918 669.549C408.918 658.156 418.151 648.92 429.541 648.92C440.93 648.92 450.163 658.156 450.163 669.549Z" fill="#E2E8F0"/>
<path fill-rule="evenodd" clip-rule="evenodd" d="M870.238 52.5379C794.159 52.5379 732.483 114.231 732.483 190.333C732.483 201.748 723.231 211.003 711.82 211.003C700.408 211.003 691.156 201.748 691.156 190.333C691.156 91.4004 771.334 11.1992 870.238 11.1992C881.65 11.1992 890.902 20.4532 890.902 31.8685C890.902 43.2839 881.65 52.5379 870.238 52.5379Z" fill="#FFC107"/>
<path fill-rule="evenodd" clip-rule="evenodd" d="M1067.04 179.744C1067.04 109.795 1010.35 53.0895 940.418 53.0895C929.017 53.0895 919.773 43.8441 919.773 32.4393C919.773 21.0344 929.017 11.7891 940.418 11.7891C1033.15 11.7891 1108.32 86.9851 1108.32 179.744C1108.32 191.148 1099.08 200.394 1087.68 200.394C1076.28 200.394 1067.04 191.148 1067.04 179.744Z" fill="#8BC34A"/>
<path fill-rule="evenodd" clip-rule="evenodd" d="M423.061 571.711C423.061 517.024 378.743 472.693 324.072 472.693C312.683 472.693 303.449 463.457 303.449 452.064C303.449 440.672 312.683 431.436 324.072 431.436C401.521 431.436 464.306 494.239 464.306 571.711C464.306 583.103 455.073 592.339 443.683 592.339C432.294 592.339 423.061 583.103 423.061 571.711Z" fill="#FFC107"/>
<path fill-rule="evenodd" clip-rule="evenodd" d="M59.5135 560.191C59.3654 548.798 68.4776 539.442 79.8662 539.295C91.2549 539.146 100.607 548.261 100.755 559.653C100.903 571.045 91.7912 580.4 80.4026 580.549C69.0141 580.697 59.6617 571.582 59.5135 560.191Z" fill="#FF5722"/>
<path fill-rule="evenodd" clip-rule="evenodd" d="M296.377 912.968C284.987 912.968 275.754 903.732 275.754 892.34C275.754 880.947 284.987 871.711 296.377 871.711C307.766 871.711 316.999 880.947 316.999 892.34C316.999 903.732 307.766 912.968 296.377 912.968Z" fill="#FF5722"/>
<path fill-rule="evenodd" clip-rule="evenodd" d="M396.545 1057.37C385.155 1057.37 375.922 1048.13 375.922 1036.74C375.922 1025.35 385.155 1016.11 396.545 1016.11C407.934 1016.11 417.167 1025.35 417.167 1036.74C417.167 1048.13 407.934 1057.37 396.545 1057.37Z" fill="#FF5722"/>
<path fill-rule="evenodd" clip-rule="evenodd" d="M103.705 1112.18C92.3151 1112.18 83.082 1102.95 83.082 1091.55C83.082 1080.16 92.3151 1070.92 103.705 1070.92C115.094 1070.92 124.327 1080.16 124.327 1091.55C124.327 1102.95 115.094 1112.18 103.705 1112.18Z" fill="#FF5722"/>
<path fill-rule="evenodd" clip-rule="evenodd" d="M296.377 967.781C284.987 967.781 275.754 958.545 275.754 947.152C275.754 935.76 284.987 926.523 296.377 926.523C307.766 926.523 316.999 935.76 316.999 947.152C316.999 958.545 307.766 967.781 296.377 967.781Z" fill="#3F51B5"/>
<path fill-rule="evenodd" clip-rule="evenodd" d="M296.377 1023.18C284.987 1023.18 275.754 1013.95 275.754 1002.55C275.754 991.162 284.987 981.926 296.377 981.926C307.766 981.926 316.999 991.162 316.999 1002.55C316.999 1013.95 307.766 1023.18 296.377 1023.18Z" fill="#3F51B5"/>
<path fill-rule="evenodd" clip-rule="evenodd" d="M451.931 1064.44C440.542 1064.44 431.309 1055.2 431.309 1043.81C431.309 1032.42 440.542 1023.18 451.931 1023.18C463.32 1023.18 472.554 1032.42 472.554 1043.81C472.554 1055.2 463.32 1064.44 451.931 1064.44Z" fill="#FF5722"/>
<path fill-rule="evenodd" clip-rule="evenodd" d="M451.931 1119.25C440.542 1119.25 431.309 1110.02 431.309 1098.62C431.309 1087.23 440.542 1078 451.931 1078C463.32 1078 472.554 1087.23 472.554 1098.62C472.554 1110.02 463.32 1119.25 451.931 1119.25Z" fill="#FF5722"/>
<path fill-rule="evenodd" clip-rule="evenodd" d="M429.541 690.177C418.151 690.177 408.918 680.941 408.918 669.549C408.918 658.156 418.151 648.92 429.541 648.92C440.93 648.92 450.163 658.156 450.163 669.549C450.163 680.941 440.93 690.177 429.541 690.177Z" fill="#FF5722"/>
<path fill-rule="evenodd" clip-rule="evenodd" d="M182.068 687.23C170.679 687.23 161.445 677.994 161.445 666.601C161.445 655.209 170.679 645.973 182.068 645.973C193.457 645.973 202.691 655.209 202.691 666.601C202.691 677.994 193.457 687.23 182.068 687.23Z" fill="#FF5722"/>
<path fill-rule="evenodd" clip-rule="evenodd" d="M578.56 662.772C578.56 643.759 563.152 628.346 544.144 628.346C525.136 628.346 509.729 643.759 509.729 662.772C509.729 681.785 525.136 697.198 544.144 697.198C563.152 697.198 578.56 681.785 578.56 662.772ZM544.144 587.035C585.96 587.035 619.859 620.943 619.859 662.772C619.859 704.601 585.96 738.509 544.144 738.509C502.328 738.509 468.43 704.601 468.43 662.772C468.43 620.943 502.328 587.035 544.144 587.035Z" fill="#FFC107"/>
<path fill-rule="evenodd" clip-rule="evenodd" d="M636.359 249.902C636.359 261.295 645.605 270.531 657.012 270.531C676.022 270.531 691.433 285.924 691.433 304.912V442.437C691.433 461.425 676.022 476.818 657.012 476.818C645.605 476.818 636.359 486.054 636.359 497.446C636.359 508.839 645.605 518.075 657.012 518.075C678.711 518.075 698.279 508.959 712.086 494.351C725.892 508.959 745.461 518.075 767.16 518.075H830.495C872.318 518.075 906.222 484.211 906.222 442.437C906.222 431.044 896.975 421.808 885.569 421.808C874.163 421.808 864.916 431.044 864.916 442.437C864.916 461.425 849.505 476.818 830.495 476.818H767.16C748.15 476.818 732.739 461.425 732.739 442.437V304.912C732.739 263.137 698.834 229.273 657.012 229.273C645.605 229.273 636.359 238.51 636.359 249.902Z" fill="#8BC34A"/>
<path d="M677.605 497.578C677.605 486.18 668.36 476.94 656.956 476.94C637.949 476.94 622.541 461.539 622.541 442.542V304.949C622.541 285.952 637.949 270.551 656.956 270.551C668.36 270.551 677.605 261.31 677.605 249.912C677.605 238.514 668.36 229.273 656.956 229.273C615.141 229.273 581.244 263.154 581.244 304.949V442.542C581.244 444.235 581.299 445.915 581.409 447.58C547.043 458.096 522.051 490.055 522.051 527.849V607.652C522.051 619.05 531.296 628.291 542.7 628.291C554.103 628.291 563.348 619.05 563.348 607.652V527.849C563.348 507.976 576.946 491.277 595.348 486.541C609.084 505.718 631.559 518.217 656.956 518.217C668.36 518.217 677.605 508.977 677.605 497.578Z" fill="#E2E8F0"/>
<path fill-rule="evenodd" clip-rule="evenodd" d="M656.687 518.129C637.679 518.129 622.272 533.542 622.272 552.555C622.272 571.568 637.679 586.981 656.687 586.981C675.694 586.981 691.103 571.568 691.103 552.555C691.103 541.148 700.347 531.9 711.753 531.9C723.157 531.9 732.402 541.148 732.402 552.555C732.402 594.384 698.502 628.292 656.687 628.292C614.871 628.292 580.973 594.384 580.973 552.555C580.973 510.726 614.871 476.818 656.687 476.818C668.091 476.818 677.337 486.067 677.337 497.474C677.337 508.881 668.091 518.129 656.687 518.129Z" fill="#3F51B5"/>
<path d="M1153.74 656.877C1153.74 637.865 1169.15 622.452 1188.16 622.452C1207.17 622.452 1222.58 637.865 1222.58 656.877C1222.58 675.89 1207.17 691.303 1188.16 691.303C1176.76 691.303 1167.51 700.551 1167.51 711.959C1167.51 723.366 1176.76 732.614 1188.16 732.614C1229.98 732.614 1263.87 698.706 1263.87 656.877C1263.87 615.049 1229.98 581.141 1188.16 581.141C1146.34 581.141 1112.45 615.049 1112.45 656.877C1112.45 668.285 1121.69 677.533 1133.09 677.533C1144.5 677.533 1153.74 668.285 1153.74 656.877Z" fill="#E2E8F0"/>
<path fill-rule="evenodd" clip-rule="evenodd" d="M656.982 518.076C645.591 518.076 636.359 508.84 636.359 497.447C636.359 486.055 645.591 476.818 656.982 476.818C668.371 476.818 677.605 486.055 677.605 497.447C677.605 508.84 668.371 518.076 656.982 518.076Z" fill="#FF5722"/>
<path fill-rule="evenodd" clip-rule="evenodd" d="M656.982 270.531C645.591 270.531 636.359 261.295 636.359 249.902C636.359 238.51 645.591 229.273 656.982 229.273C668.371 229.273 677.605 238.51 677.605 249.902C677.605 261.295 668.371 270.531 656.982 270.531Z" fill="#FF5722"/>
<path fill-rule="evenodd" clip-rule="evenodd" d="M542.673 628.293C531.284 628.293 522.051 619.056 522.051 607.664C522.051 596.271 531.284 587.035 542.673 587.035C554.063 587.035 563.296 596.271 563.296 607.664C563.296 619.056 554.063 628.293 542.673 628.293Z" fill="#FF5722"/>
<path fill-rule="evenodd" clip-rule="evenodd" d="M543.849 683.105C532.46 683.105 523.227 673.869 523.227 662.476C523.227 651.084 532.46 641.848 543.849 641.848C555.238 641.848 564.472 651.084 564.472 662.476C564.472 673.869 555.238 683.105 543.849 683.105Z" fill="#3F51B5"/>
<path fill-rule="evenodd" clip-rule="evenodd" d="M1409.83 479.519C1409.83 521.321 1375.93 555.208 1334.1 555.208H1196.42C1154.6 555.208 1120.7 521.321 1120.7 479.519C1120.7 437.717 1154.6 403.83 1196.42 403.83H1240.48V360.481C1240.48 318.68 1274.38 284.793 1316.21 284.793H1453.89C1472.9 284.793 1488.31 269.389 1488.31 250.389V187.085C1488.31 168.085 1472.9 152.681 1453.89 152.681C1442.49 152.681 1433.24 143.439 1433.24 132.039C1433.24 120.638 1442.49 111.396 1453.89 111.396C1495.72 111.396 1529.61 145.283 1529.61 187.085V250.389C1529.61 272.077 1520.49 291.636 1505.86 305.435C1520.49 319.235 1529.61 338.793 1529.61 360.481V422.409C1529.61 433.809 1520.36 443.051 1508.96 443.051C1497.56 443.051 1488.31 433.809 1488.31 422.409V360.481C1488.31 341.481 1472.9 326.077 1453.89 326.077H1316.21C1297.2 326.077 1281.78 341.481 1281.78 360.481V403.83H1334.1C1375.93 403.83 1409.83 437.717 1409.83 479.519ZM1196.42 445.115C1177.41 445.115 1162 460.518 1162 479.519C1162 498.52 1177.41 513.923 1196.42 513.923H1334.1C1353.11 513.923 1368.52 498.52 1368.52 479.519C1368.52 460.518 1353.11 445.115 1334.1 445.115H1196.42Z" fill="#8BC34A"/>
<path fill-rule="evenodd" clip-rule="evenodd" d="M1100.75 281.288C1124.24 290.84 1150.84 279.635 1160.28 256.525C1169.71 233.416 1158.54 206.848 1135.06 197.296C1122.08 192.019 1108.15 193.064 1096.64 199.005C1086.51 204.236 1074.04 200.278 1068.8 190.166C1063.56 180.054 1067.53 167.618 1077.66 162.387C1099.49 151.121 1126.04 149.109 1150.65 159.118C1195.09 177.193 1216.65 227.721 1198.53 272.084C1180.42 316.449 1129.61 337.542 1085.16 319.467C1074.6 315.17 1069.52 303.139 1073.83 292.598C1078.13 282.055 1090.19 276.992 1100.75 281.288Z" fill="#FFC107"/>
<path fill-rule="evenodd" clip-rule="evenodd" d="M1409.41 483.89C1409.41 536.298 1451.88 578.782 1504.28 578.782C1515.66 578.782 1524.9 588.018 1524.9 599.411C1524.9 610.804 1515.66 620.04 1504.28 620.04C1429.1 620.04 1368.17 559.083 1368.17 483.89C1368.17 472.498 1377.41 463.262 1388.79 463.262C1400.17 463.262 1409.41 472.498 1409.41 483.89Z" fill="#FFC107"/>
<path fill-rule="evenodd" clip-rule="evenodd" d="M1388.79 503.341C1377.41 503.341 1368.17 494.105 1368.17 482.713C1368.17 471.32 1377.41 462.084 1388.79 462.084C1400.17 462.084 1409.41 471.32 1409.41 482.713C1409.41 494.105 1400.17 503.341 1388.79 503.341Z" fill="#FF5722"/>
<path fill-rule="evenodd" clip-rule="evenodd" d="M636.302 400.828C636.302 381.879 620.894 366.517 601.887 366.517C582.878 366.517 567.471 381.879 567.471 400.828C567.471 412.197 558.225 421.414 546.821 421.414C535.416 421.414 526.172 412.197 526.172 400.828C526.172 359.139 560.07 325.344 601.887 325.344C643.702 325.344 677.601 359.139 677.601 400.828C677.601 412.197 668.356 421.414 656.952 421.414C645.546 421.414 636.302 412.197 636.302 400.828Z" fill="#FFC107"/>
<path fill-rule="evenodd" clip-rule="evenodd" d="M975.107 443.855C975.107 424.906 959.698 409.544 940.691 409.544C921.684 409.544 906.275 424.906 906.275 443.855C906.275 455.225 897.03 464.442 885.626 464.442C874.222 464.442 864.977 455.225 864.977 443.855C864.977 402.166 898.875 368.371 940.691 368.371C982.508 368.371 1016.41 402.166 1016.41 443.855C1016.41 455.225 1007.16 464.442 995.756 464.442C984.352 464.442 975.107 455.225 975.107 443.855Z" fill="#3F51B5"/>
<path d="M456.056 1158.15C508.449 1158.15 550.921 1115.67 550.921 1063.26C550.921 1051.87 560.154 1042.63 571.543 1042.63C582.932 1042.63 592.166 1051.87 592.166 1063.26C592.166 1138.45 531.227 1199.41 456.056 1199.41C444.667 1199.41 435.434 1190.17 435.434 1178.78C435.434 1167.39 444.667 1158.15 456.056 1158.15Z" fill="#E2E8F0"/>
<path fill-rule="evenodd" clip-rule="evenodd" d="M665.252 670.68C726.066 670.68 775.365 621.367 775.365 560.535C775.365 549.13 784.609 539.883 796.011 539.883C807.413 539.883 816.658 549.13 816.658 560.535C816.658 644.178 748.87 711.985 665.252 711.985C653.849 711.985 644.605 702.738 644.605 691.333C644.605 679.927 653.849 670.68 665.252 670.68Z" fill="#8BC34A"/>
<path fill-rule="evenodd" clip-rule="evenodd" d="M656.982 421.416C645.591 421.416 636.359 412.179 636.359 400.787C636.359 389.394 645.591 380.158 656.982 380.158C668.371 380.158 677.605 389.394 677.605 400.787C677.605 412.179 668.371 421.416 656.982 421.416Z" fill="#FF5722"/>
<path fill-rule="evenodd" clip-rule="evenodd" d="M801.338 291.16C789.948 291.16 780.715 281.924 780.715 270.531C780.715 259.138 789.948 249.902 801.338 249.902C812.727 249.902 821.96 259.138 821.96 270.531C821.96 281.924 812.727 291.16 801.338 291.16Z" fill="#FF5722"/>
<path fill-rule="evenodd" clip-rule="evenodd" d="M1114.8 713.164C1114.8 724.556 1124.04 733.793 1135.43 733.793C1146.82 733.793 1156.05 724.556 1156.05 713.164C1156.05 701.771 1146.82 692.535 1135.43 692.535C1124.04 692.535 1114.8 701.771 1114.8 713.164Z" fill="#FF5722"/>
<path fill-rule="evenodd" clip-rule="evenodd" d="M1060.01 713.164C1060.01 724.556 1069.24 733.793 1080.63 733.793C1092.02 733.793 1101.25 724.556 1101.25 713.164C1101.25 701.771 1092.02 692.535 1080.63 692.535C1069.24 692.535 1060.01 701.771 1060.01 713.164Z" fill="#FF5722"/>
<g style="mix-blend-mode:multiply">
<path fill-rule="evenodd" clip-rule="evenodd" d="M1464.5 1199.41C1422.68 1199.41 1388.79 1165.55 1388.79 1123.77V986.248C1388.79 944.473 1422.68 910.609 1464.5 910.609C1506.33 910.609 1540.22 944.473 1540.22 986.248V1123.77C1540.22 1165.55 1506.33 1199.41 1464.5 1199.41ZM1498.92 1123.77V986.248C1498.92 967.26 1483.52 951.867 1464.5 951.867C1445.49 951.867 1430.09 967.26 1430.09 986.248V1123.77C1430.09 1142.76 1445.49 1158.15 1464.5 1158.15C1483.52 1158.15 1498.92 1142.76 1498.92 1123.77Z" fill="#8BC34A"/>
</g>
<path d="M1485.54 931.268C1485.54 889.553 1519.48 855.737 1561.37 855.737C1572.79 855.737 1582.05 846.515 1582.05 835.138C1582.05 823.762 1572.79 814.539 1561.37 814.539C1496.65 814.539 1444.18 866.801 1444.18 931.268C1444.18 942.644 1453.44 951.867 1464.86 951.867C1476.27 951.867 1485.54 942.644 1485.54 931.268Z" fill="#E2E8F0"/>
<path fill-rule="evenodd" clip-rule="evenodd" d="M1485.42 931.238C1485.42 919.844 1476.18 910.609 1464.8 910.609C1453.41 910.609 1444.18 919.844 1444.18 931.238C1444.18 942.631 1453.41 951.867 1464.8 951.867C1476.18 951.867 1485.42 942.631 1485.42 931.238Z" fill="#FF5722"/>
<path fill-rule="evenodd" clip-rule="evenodd" d="M1280.08 1089.25C1261.07 1089.25 1245.66 1104.66 1245.66 1123.67C1245.66 1142.69 1261.07 1158.1 1280.08 1158.1C1299.09 1158.1 1314.49 1142.69 1314.49 1123.67C1314.49 1104.66 1299.09 1089.25 1280.08 1089.25ZM1204.36 1123.67C1204.36 1081.85 1238.26 1047.94 1280.08 1047.94C1321.89 1047.94 1355.79 1081.85 1355.79 1123.67C1355.79 1165.5 1321.89 1199.41 1280.08 1199.41C1238.26 1199.41 1204.36 1165.5 1204.36 1123.67Z" fill="#FFC107"/>
<path d="M867.34 990.178C878.735 990.178 887.973 999.437 887.973 1010.86C887.973 1029.9 903.369 1045.33 922.361 1045.33H1059.91C1078.9 1045.33 1094.3 1029.9 1094.3 1010.86C1094.3 999.437 1103.54 990.178 1114.93 990.178C1126.33 990.178 1135.57 999.437 1135.57 1010.86C1135.57 1036.24 1123.13 1058.71 1104.02 1072.48C1108.87 1090.27 1125.2 1103.24 1145.2 1103.24H1224.98C1236.37 1103.24 1245.61 1112.5 1245.61 1123.92C1245.61 1135.34 1236.37 1144.6 1224.98 1144.6H1145.2C1107.88 1144.6 1075.82 1120.62 1065.1 1086.52C1063.39 1086.63 1061.66 1086.69 1059.91 1086.69H922.361C880.578 1086.69 846.707 1052.74 846.707 1010.86C846.707 999.437 855.945 990.178 867.34 990.178Z" fill="#E2E8F0"/>
<path fill-rule="evenodd" clip-rule="evenodd" d="M697.93 743.812C739.746 743.812 773.644 777.677 773.644 819.451V956.976C773.644 998.75 739.746 1032.61 697.93 1032.61C656.113 1032.61 622.215 998.75 622.215 956.976V819.451C622.215 777.677 656.113 743.812 697.93 743.812ZM732.345 819.451C732.345 800.463 716.937 785.07 697.93 785.07C678.922 785.07 663.514 800.463 663.514 819.451V956.976C663.514 975.964 678.922 991.357 697.93 991.357C716.937 991.357 732.345 975.964 732.345 956.976V819.451Z" fill="#8BC34A"/>
<path fill-rule="evenodd" clip-rule="evenodd" d="M867.33 1031.44C878.719 1031.44 887.952 1022.19 887.952 1010.78C887.952 991.761 903.341 976.345 922.324 976.345V976.345H1059.81C1078.79 976.345 1094.18 991.761 1094.18 1010.78C1094.18 1022.19 1103.41 1031.44 1114.8 1031.44C1126.19 1031.44 1135.42 1022.19 1135.42 1010.78C1135.42 989.071 1126.31 969.497 1111.71 955.686C1126.31 941.875 1135.42 922.302 1135.42 900.596V837.243C1135.42 795.408 1101.57 761.494 1059.81 761.494C1048.42 761.494 1039.19 770.744 1039.19 782.153C1039.19 793.562 1048.42 802.812 1059.81 802.812C1078.79 802.812 1094.18 818.227 1094.18 837.243V900.596C1094.18 919.612 1078.79 935.028 1059.81 935.028H922.325C922.324 935.028 922.325 935.028 922.325 935.028C880.563 935.028 846.707 968.941 846.707 1010.78C846.707 1022.19 855.94 1031.44 867.33 1031.44Z" fill="#8BC34A"/>
<path fill-rule="evenodd" clip-rule="evenodd" d="M1135.48 1010.51C1135.48 1029.52 1150.89 1044.94 1169.89 1044.94C1188.9 1044.94 1204.31 1029.52 1204.31 1010.51C1204.31 991.499 1188.9 976.086 1169.89 976.086C1158.49 976.086 1149.24 966.838 1149.24 955.431C1149.24 944.024 1158.49 934.775 1169.89 934.775C1211.71 934.775 1245.61 968.683 1245.61 1010.51C1245.61 1052.34 1211.71 1086.25 1169.89 1086.25C1128.08 1086.25 1094.18 1052.34 1094.18 1010.51C1094.18 999.105 1103.43 989.857 1114.83 989.857C1126.23 989.857 1135.48 999.105 1135.48 1010.51Z" fill="#3F51B5"/>
<path fill-rule="evenodd" clip-rule="evenodd" d="M959.787 841.356C959.787 822.343 944.378 806.93 925.371 806.93C906.364 806.93 890.955 822.343 890.955 841.356C890.955 860.369 906.364 875.782 925.371 875.782C936.775 875.782 946.02 885.03 946.02 896.437C946.02 907.844 936.775 917.093 925.371 917.093C883.554 917.093 849.656 883.185 849.656 841.356C849.656 799.527 883.554 765.619 925.371 765.619C967.187 765.619 1001.09 799.527 1001.09 841.356C1001.09 852.763 991.84 862.011 980.436 862.011C969.032 862.011 959.787 852.763 959.787 841.356Z" fill="#3F51B5"/>
<path fill-rule="evenodd" clip-rule="evenodd" d="M677.602 952.985C677.602 927.593 657.198 907.176 632.232 907.176C607.267 907.176 586.863 927.593 586.863 952.985C586.863 967.013 593.08 979.529 602.921 987.952C611.585 995.366 612.615 1008.42 605.221 1017.11C597.827 1025.79 584.81 1026.83 576.147 1019.41C557.485 1003.44 545.617 979.587 545.617 952.985C545.617 904.934 584.304 865.816 632.232 865.816C680.161 865.816 718.848 904.934 718.848 952.985C718.848 964.405 709.614 973.665 698.225 973.665C686.836 973.665 677.602 964.405 677.602 952.985Z" fill="#FF5722"/>
<path fill-rule="evenodd" clip-rule="evenodd" d="M1135.43 1010.22C1135.43 1021.61 1126.19 1030.85 1114.8 1030.85C1103.41 1030.85 1094.18 1021.61 1094.18 1010.22C1094.18 998.824 1103.41 989.588 1114.8 989.588C1126.19 989.588 1135.43 998.824 1135.43 1010.22Z" fill="#FF5722"/>
<path fill-rule="evenodd" clip-rule="evenodd" d="M887.952 1010.81C887.952 1022.2 878.719 1031.44 867.33 1031.44C855.94 1031.44 846.707 1022.2 846.707 1010.81C846.707 999.414 855.94 990.178 867.33 990.178C878.719 990.178 887.952 999.414 887.952 1010.81Z" fill="#FF5722"/>
<path fill-rule="evenodd" clip-rule="evenodd" d="M1245.61 1123.97C1245.61 1135.36 1236.38 1144.6 1224.99 1144.6C1213.6 1144.6 1204.36 1135.36 1204.36 1123.97C1204.36 1112.58 1213.6 1103.34 1224.99 1103.34C1236.38 1103.34 1245.61 1112.58 1245.61 1123.97Z" fill="#FF5722"/>
<path fill-rule="evenodd" clip-rule="evenodd" d="M1301 1123.38C1301 1134.77 1291.76 1144.01 1280.37 1144.01C1268.98 1144.01 1259.75 1134.77 1259.75 1123.38C1259.75 1111.99 1268.98 1102.75 1280.37 1102.75C1291.76 1102.75 1301 1111.99 1301 1123.38Z" fill="#FF5722"/>
<path fill-rule="evenodd" clip-rule="evenodd" d="M1018.8 1031.49C999.858 1031.49 984.501 1046.9 984.501 1065.91C984.501 1084.93 999.858 1100.34 1018.8 1100.34C1030.17 1100.34 1039.38 1109.59 1039.38 1121C1039.38 1132.4 1030.17 1141.65 1018.8 1141.65C977.125 1141.65 943.34 1107.74 943.34 1065.91C943.34 1024.09 977.125 990.178 1018.8 990.178C1030.17 990.178 1039.38 999.426 1039.38 1010.83C1039.38 1022.24 1030.17 1031.49 1018.8 1031.49Z" fill="#FFC107"/>
<path fill-rule="evenodd" clip-rule="evenodd" d="M1061.15 662.476C1034.91 662.476 1012.94 684.255 1012.94 711.985C1012.94 739.715 1034.91 761.494 1061.15 761.494C1072.56 761.494 1081.81 770.73 1081.81 782.122C1081.81 793.515 1072.56 802.751 1061.15 802.751C1011.32 802.751 971.625 761.726 971.625 711.985C971.625 662.244 1011.32 621.219 1061.15 621.219C1072.56 621.219 1081.81 630.455 1081.81 641.847C1081.81 653.24 1072.56 662.476 1061.15 662.476Z" fill="#FFC107"/>
<path fill-rule="evenodd" clip-rule="evenodd" d="M925.06 917.17C872.629 917.17 830.126 959.733 830.126 1012.24C830.126 1054.09 796.246 1088.02 754.453 1088.02C712.66 1088.02 678.781 1054.09 678.781 1012.24C678.781 1000.82 688.022 991.571 699.419 991.571C710.817 991.571 720.057 1000.82 720.057 1012.24C720.057 1031.26 735.457 1046.68 754.453 1046.68C773.45 1046.68 788.85 1031.26 788.85 1012.24C788.85 936.905 849.833 875.836 925.06 875.836C936.457 875.836 945.698 885.089 945.698 896.503C945.698 907.917 936.457 917.17 925.06 917.17Z" fill="#FFC107"/>
<path d="M702.349 743.813C788.909 743.813 859.082 673.62 859.082 587.035C859.082 575.642 868.315 566.406 879.704 566.406C891.093 566.406 900.327 575.642 900.327 587.035C900.327 696.407 811.689 785.07 702.349 785.07C690.96 785.07 681.727 775.834 681.727 764.442C681.727 753.049 690.96 743.813 702.349 743.813Z" fill="#E2E8F0"/>
<path d="M1310.38 51.3619C1236.58 51.3619 1176.75 111.207 1176.75 185.029C1176.75 196.445 1167.5 205.699 1156.09 205.699C1144.68 205.699 1135.43 196.445 1135.43 185.029C1135.43 88.375 1213.76 10.0215 1310.38 10.0215C1321.79 10.0215 1331.05 19.2758 1331.05 30.6917C1331.05 42.1075 1321.79 51.3619 1310.38 51.3619Z" fill="#E2E8F0"/>
<path fill-rule="evenodd" clip-rule="evenodd" d="M1274.48 995.481C1274.48 943.073 1232.01 900.589 1179.62 900.589C1168.23 900.589 1159 891.353 1159 879.961C1159 868.568 1168.23 859.332 1179.62 859.332C1254.79 859.332 1315.73 920.288 1315.73 995.481C1315.73 1006.87 1306.49 1016.11 1295.11 1016.11C1283.72 1016.11 1274.48 1006.87 1274.48 995.481Z" fill="#FF5722"/>
<path fill-rule="evenodd" clip-rule="evenodd" d="M43.0148 1063.26C43.0148 1115.67 85.4869 1158.15 137.879 1158.15C149.268 1158.15 158.502 1167.39 158.502 1178.78C158.502 1190.17 149.268 1199.41 137.879 1199.41C62.7078 1199.41 1.76952 1138.45 1.76953 1063.26C1.76953 1051.87 11.0026 1042.63 22.3922 1042.63C33.7817 1042.63 43.0148 1051.87 43.0148 1063.26Z" fill="#8BC34A"/>
<path fill-rule="evenodd" clip-rule="evenodd" d="M586.895 853.964C552.021 853.964 523.751 882.243 523.751 917.126C523.751 928.501 514.532 937.722 503.161 937.722C491.789 937.722 482.57 928.501 482.57 917.126C482.57 859.492 529.277 812.771 586.895 812.771C598.266 812.771 607.485 821.993 607.485 833.368C607.485 844.742 598.266 853.964 586.895 853.964Z" fill="#FFC107"/>
<path fill-rule="evenodd" clip-rule="evenodd" d="M1039.38 1010.81C1039.38 1022.2 1030.15 1031.44 1018.76 1031.44C1007.37 1031.44 998.137 1022.2 998.137 1010.81C998.137 999.414 1007.37 990.178 1018.76 990.178C1030.15 990.178 1039.38 999.414 1039.38 1010.81Z" fill="#FF5722"/>
<path fill-rule="evenodd" clip-rule="evenodd" d="M946.288 896.465C946.288 907.857 937.055 917.093 925.666 917.093C914.276 917.093 905.043 907.857 905.043 896.465C905.043 885.072 914.276 875.836 925.666 875.836C937.055 875.836 946.288 885.072 946.288 896.465Z" fill="#FF5722"/>
<path fill-rule="evenodd" clip-rule="evenodd" d="M945.698 727.308C945.698 738.701 936.465 747.937 925.076 747.937C913.687 747.937 904.453 738.701 904.453 727.308C904.453 715.916 913.687 706.68 925.076 706.68C936.465 706.68 945.698 715.916 945.698 727.308Z" fill="#FF5722"/>
<path fill-rule="evenodd" clip-rule="evenodd" d="M945.698 671.906C945.698 683.299 936.465 692.535 925.076 692.535C913.687 692.535 904.453 683.299 904.453 671.906C904.453 660.513 913.687 651.277 925.076 651.277C936.465 651.277 945.698 660.513 945.698 671.906Z" fill="#FF5722"/>
<path fill-rule="evenodd" clip-rule="evenodd" d="M906.222 444.402C906.222 455.795 896.988 465.031 885.599 465.031C874.21 465.031 864.977 455.795 864.977 444.402C864.977 433.01 874.21 423.773 885.599 423.773C896.988 423.773 906.222 433.01 906.222 444.402Z" fill="#FF5722"/>
<path fill-rule="evenodd" clip-rule="evenodd" d="M1081.81 782.123C1081.81 793.515 1072.57 802.752 1061.19 802.752C1049.8 802.752 1040.56 793.515 1040.56 782.123C1040.56 770.73 1049.8 761.494 1061.19 761.494C1072.57 761.494 1081.81 770.73 1081.81 782.123Z" fill="#FF5722"/>
<path fill-rule="evenodd" clip-rule="evenodd" d="M433.961 124.309C414.954 124.309 399.545 108.896 399.545 89.8832C399.545 70.8704 414.954 55.4574 433.961 55.4574C452.968 55.4574 468.377 70.8704 468.377 89.8832C468.377 108.896 452.968 124.309 433.961 124.309ZM358.246 89.8832C358.246 131.712 392.144 165.62 433.961 165.62C475.777 165.62 509.675 131.712 509.675 89.8832C509.675 48.0551 475.777 14.1465 433.961 14.1465C392.144 14.1465 358.246 48.0549 358.246 89.8832Z" fill="#FFC107"/>
<path fill-rule="evenodd" clip-rule="evenodd" d="M21.2125 182.123C32.6022 182.123 41.8352 191.37 41.8352 202.775C41.8352 221.785 57.2237 237.196 76.2063 237.196H213.691C232.673 237.196 248.062 221.785 248.062 202.775C248.062 191.37 257.295 182.123 268.685 182.123C280.074 182.123 289.307 191.37 289.307 202.775C289.307 244.598 255.453 278.5 213.691 278.5H78.9817C78.9732 278.5 78.9645 278.5 78.956 278.5C59.9734 278.5 44.5849 293.911 44.5849 312.921V450.602C44.5849 469.612 59.9734 485.023 78.956 485.023C90.3456 485.023 99.5787 494.27 99.5787 505.675C99.5787 517.081 90.3456 526.327 78.956 526.327C37.1941 526.327 3.33952 492.425 3.33952 450.602V312.921C3.33952 291.894 11.8976 272.868 25.7158 259.146C10.2921 245.283 0.589841 225.164 0.589844 202.775C0.589845 191.37 9.82293 182.123 21.2125 182.123Z" fill="#8BC34A"/>
<path d="M219.112 127.5C230.005 93.8728 261.663 69.5488 299.021 69.5488H378.847C390.248 69.5488 399.491 78.763 399.491 90.1293C399.491 101.495 390.248 110.71 378.847 110.71H299.021C279.506 110.71 263.052 123.77 257.973 141.6C276.957 155.313 289.307 177.613 289.307 202.793C289.307 214.163 280.074 223.38 268.685 223.38C257.295 223.38 248.062 214.163 248.062 202.793C248.062 183.844 232.673 168.482 213.691 168.482H76.2063C57.2237 168.482 41.8352 183.844 41.8352 202.793C41.8352 214.163 32.6021 223.38 21.2125 223.38C9.82293 223.38 0.589844 214.163 0.589844 202.793C0.589844 161.104 34.4444 127.309 76.2063 127.309H213.691C215.514 127.309 217.321 127.374 219.112 127.5H219.112Z" fill="#E2E8F0"/>
<path fill-rule="evenodd" clip-rule="evenodd" d="M289.361 203.045C289.361 184.033 304.77 168.62 323.777 168.62C342.784 168.62 358.193 184.033 358.193 203.045C358.193 222.058 342.784 237.471 323.777 237.471C312.373 237.471 303.128 246.719 303.128 258.127C303.128 269.534 312.373 278.782 323.777 278.782C365.594 278.782 399.492 244.874 399.492 203.045C399.492 161.217 365.594 127.309 323.777 127.309C281.961 127.309 248.062 161.217 248.062 203.045C248.062 214.453 257.308 223.701 268.712 223.701C280.116 223.701 289.361 214.453 289.361 203.045Z" fill="#3F51B5"/>
<path fill-rule="evenodd" clip-rule="evenodd" d="M289.308 203.342C289.308 191.949 280.074 182.713 268.685 182.713C257.296 182.713 248.062 191.949 248.062 203.342C248.062 214.734 257.296 223.97 268.685 223.97C280.074 223.97 289.308 214.734 289.308 203.342Z" fill="#FF5722"/>
<path fill-rule="evenodd" clip-rule="evenodd" d="M41.8352 202.752C41.8352 191.359 32.6017 182.123 21.2125 182.123C9.8233 182.123 0.589844 191.359 0.589844 202.752C0.589844 214.144 9.8233 223.38 21.2125 223.38C32.6017 223.38 41.8352 214.144 41.8352 202.752Z" fill="#3F51B5"/>
<path fill-rule="evenodd" clip-rule="evenodd" d="M268.683 328.291C268.683 316.898 259.449 307.662 248.06 307.662C236.671 307.662 227.438 316.898 227.438 328.291C227.438 339.683 236.671 348.919 248.06 348.919C259.449 348.919 268.683 339.683 268.683 328.291Z" fill="#3F51B5"/>
<path fill-rule="evenodd" clip-rule="evenodd" d="M268.683 383.105C268.683 371.713 259.449 362.477 248.06 362.477C236.671 362.477 227.438 371.713 227.438 383.105C227.438 394.498 236.671 403.734 248.06 403.734C259.449 403.734 268.683 394.498 268.683 383.105Z" fill="#3F51B5"/>
<path fill-rule="evenodd" clip-rule="evenodd" d="M447.808 406.681C447.808 395.289 438.574 386.053 427.185 386.053C415.796 386.053 406.562 395.289 406.562 406.681C406.562 418.074 415.796 427.31 427.185 427.31C438.574 427.31 447.808 418.074 447.808 406.681Z" fill="#3F51B5"/>
<path fill-rule="evenodd" clip-rule="evenodd" d="M504.374 403.734C504.374 392.342 495.141 383.105 483.752 383.105C472.362 383.105 463.129 392.342 463.129 403.734C463.129 415.127 472.362 424.363 483.752 424.363C495.141 424.363 504.374 415.127 504.374 403.734Z" fill="#3F51B5"/>
<path fill-rule="evenodd" clip-rule="evenodd" d="M504.374 461.494C504.374 450.101 495.141 440.865 483.752 440.865C472.362 440.865 463.129 450.101 463.129 461.494C463.129 472.886 472.362 482.123 483.752 482.123C495.141 482.123 504.374 472.886 504.374 461.494Z" fill="#3F51B5"/>
<path fill-rule="evenodd" clip-rule="evenodd" d="M223.316 1179.96C223.316 1168.57 214.082 1159.33 202.693 1159.33C191.304 1159.33 182.07 1168.57 182.07 1179.96C182.07 1191.35 191.304 1200.59 202.693 1200.59C214.082 1200.59 223.316 1191.35 223.316 1179.96Z" fill="#3F51B5"/>
<path fill-rule="evenodd" clip-rule="evenodd" d="M285.183 1179.96C285.183 1168.57 275.949 1159.33 264.56 1159.33C253.171 1159.33 243.938 1168.57 243.938 1179.96C243.938 1191.35 253.171 1200.59 264.56 1200.59C275.949 1200.59 285.183 1191.35 285.183 1179.96Z" fill="#FF5722"/>
<path fill-rule="evenodd" clip-rule="evenodd" d="M471.374 1178.78C471.374 1167.39 462.141 1158.15 450.752 1158.15C439.362 1158.15 430.129 1167.39 430.129 1178.78C430.129 1190.18 439.362 1199.41 450.752 1199.41C462.141 1199.41 471.374 1190.18 471.374 1178.78Z" fill="#3F51B5"/>
<path fill-rule="evenodd" clip-rule="evenodd" d="M399.491 90.1775C399.491 78.7847 390.258 69.5488 378.869 69.5488C367.48 69.5488 358.246 78.7847 358.246 90.1775C358.246 101.57 367.48 110.806 378.869 110.806C390.258 110.806 399.491 101.57 399.491 90.1775Z" fill="#FF5722"/>
<path fill-rule="evenodd" clip-rule="evenodd" d="M454.878 90.1775C454.878 78.7846 445.645 69.5488 434.255 69.5488C422.866 69.5488 413.633 78.7846 413.633 90.1775C413.633 101.57 422.866 110.806 434.255 110.806C445.645 110.806 454.878 101.57 454.878 90.1775Z" fill="#FF5722"/>
<path fill-rule="evenodd" clip-rule="evenodd" d="M199.786 182.069C180.843 182.069 165.485 166.656 165.485 147.643C165.485 128.63 180.843 113.217 199.786 113.217C211.152 113.217 220.367 103.969 220.367 92.5617C220.367 81.154 211.152 71.9062 199.786 71.9062C158.109 71.9062 124.324 105.815 124.324 147.643C124.324 189.472 158.109 223.38 199.786 223.38C211.152 223.38 220.367 214.132 220.367 202.724C220.367 191.317 211.152 182.069 199.786 182.069Z" fill="#FFC107"/>
<path fill-rule="evenodd" clip-rule="evenodd" d="M97.2203 390.177C149.613 390.177 192.085 432.661 192.085 485.069C192.085 496.462 201.318 505.698 212.707 505.698C224.097 505.698 233.33 496.462 233.33 485.069C233.33 409.876 172.391 348.92 97.2203 348.92C85.8307 348.92 76.5977 358.156 76.5977 369.549C76.5977 380.941 85.8307 390.177 97.2203 390.177Z" fill="#FF5722"/>
<path fill-rule="evenodd" clip-rule="evenodd" d="M100.757 505.699C100.757 494.306 91.524 485.07 80.1344 485.07C68.7448 485.07 59.5117 494.306 59.5117 505.699C59.5117 517.092 68.7448 526.328 80.1344 526.328C91.524 526.328 100.757 517.092 100.757 505.699Z" fill="#FF5722"/>
<path fill-rule="evenodd" clip-rule="evenodd" d="M1001.09 896.465C1001.09 907.857 991.852 917.093 980.463 917.093C969.073 917.093 959.84 907.857 959.84 896.465C959.84 885.072 969.073 875.836 980.463 875.836C991.852 875.836 1001.09 885.072 1001.09 896.465Z" fill="#3F51B5"/>
<path fill-rule="evenodd" clip-rule="evenodd" d="M1055.88 896.465C1055.88 907.857 1046.65 917.093 1035.26 917.093C1023.87 917.093 1014.64 907.857 1014.64 896.465C1014.64 885.072 1023.87 875.836 1035.26 875.836C1046.65 875.836 1055.88 885.072 1055.88 896.465Z" fill="#3F51B5"/>
<path fill-rule="evenodd" clip-rule="evenodd" d="M718.847 764.441C718.847 775.834 709.613 785.07 698.224 785.07C686.835 785.07 677.602 775.834 677.602 764.441C677.602 753.049 686.835 743.812 698.224 743.812C709.613 743.812 718.847 753.049 718.847 764.441Z" fill="#FF5722"/>
<path fill-rule="evenodd" clip-rule="evenodd" d="M720.027 1011.99C720.027 1023.38 710.793 1032.61 699.404 1032.61C688.015 1032.61 678.781 1023.38 678.781 1011.99C678.781 1000.59 688.015 991.357 699.404 991.357C710.793 991.357 720.027 1000.59 720.027 1011.99Z" fill="#FF5722"/>
<path fill-rule="evenodd" clip-rule="evenodd" d="M949.89 197.447C926.584 197.447 907.466 216.471 907.466 240.214C907.466 263.956 926.584 282.98 949.89 282.98C1034.58 282.98 1103.02 351.945 1103.02 436.74C1103.02 448.132 1093.77 457.368 1082.36 457.368C1070.95 457.368 1061.7 448.132 1061.7 436.74C1061.7 374.484 1011.52 324.238 949.89 324.238C903.521 324.238 866.152 286.495 866.152 240.214C866.152 193.932 903.521 156.189 949.89 156.189C961.3 156.189 970.547 165.426 970.547 176.818C970.547 188.211 961.3 197.447 949.89 197.447Z" fill="#FFC107"/>
<path fill-rule="evenodd" clip-rule="evenodd" d="M1061.18 436.786C1061.18 499.41 1011.12 549.81 949.822 549.81C938.433 549.81 929.199 559.067 929.199 570.485C929.199 581.904 938.433 591.16 949.822 591.16C1034.31 591.16 1102.43 521.842 1102.43 436.786C1102.43 425.368 1093.2 416.111 1081.81 416.111C1070.42 416.111 1061.18 425.368 1061.18 436.786Z" fill="#FF5722"/>
<path fill-rule="evenodd" clip-rule="evenodd" d="M1081.81 457.369C1070.42 457.369 1061.18 448.133 1061.18 436.74C1061.18 425.347 1070.42 416.111 1081.81 416.111C1093.2 416.111 1102.43 425.347 1102.43 436.74C1102.43 448.133 1093.2 457.369 1081.81 457.369Z" fill="#3F51B5"/>
<path fill-rule="evenodd" clip-rule="evenodd" d="M801.338 311.789C812.727 311.789 821.96 321.039 821.96 332.449V421.974C821.96 433.384 812.727 442.634 801.338 442.634C789.948 442.634 780.715 433.384 780.715 421.974V332.449C780.715 321.039 789.948 311.789 801.338 311.789Z" fill="#8BC34A"/>
<path fill-rule="evenodd" clip-rule="evenodd" d="M463.087 195.7C463.087 272.487 400.857 334.735 324.092 334.735C312.692 334.735 303.449 343.981 303.449 355.384C303.449 366.788 312.692 376.033 324.092 376.033C423.658 376.033 504.373 295.295 504.373 195.7C504.373 184.296 495.131 175.051 483.73 175.051C472.33 175.051 463.087 184.296 463.087 195.7Z" fill="#8BC34A"/>
<path d="M1142.5 239.883C1142.5 251.275 1133.25 260.511 1121.84 260.511H946.914C935.504 260.511 926.254 251.275 926.254 239.883C926.254 228.49 935.504 219.254 946.914 219.254H1121.84C1133.25 219.254 1142.5 228.49 1142.5 239.883Z" fill="#E2E8F0"/>
<path fill-rule="evenodd" clip-rule="evenodd" d="M504.374 195.679C504.374 184.287 495.141 175.051 483.752 175.051C472.362 175.051 463.129 184.287 463.129 195.679C463.129 207.072 472.362 216.308 483.752 216.308C495.141 216.308 504.374 207.072 504.374 195.679Z" fill="#FF5722"/>
<path fill-rule="evenodd" clip-rule="evenodd" d="M1101.1 195.53C1093.05 203.586 1079.99 203.586 1071.94 195.53C1063.88 187.473 1063.88 174.411 1071.94 166.357C1079.99 158.3 1093.05 158.3 1101.1 166.357C1109.16 174.411 1109.16 187.473 1101.1 195.53Z" fill="#3F51B5"/>
<path fill-rule="evenodd" clip-rule="evenodd" d="M960.869 133.645C952.815 141.701 939.757 141.701 931.704 133.645C923.651 125.589 923.651 112.528 931.704 104.472C939.757 96.4157 952.815 96.4157 960.869 104.472C968.923 112.528 968.923 125.589 960.869 133.645Z" fill="#3F51B5"/>
<path fill-rule="evenodd" clip-rule="evenodd" d="M0.589844 641.847C0.589844 630.455 9.82293 621.219 21.2125 621.219H87.2051C98.5947 621.219 107.828 630.455 107.828 641.847C107.828 653.24 98.5947 662.476 87.2051 662.476H21.2125C9.82293 662.476 0.589844 653.24 0.589844 641.847Z" fill="#3F51B5"/>
<path fill-rule="evenodd" clip-rule="evenodd" d="M656.982 1196.46C645.593 1196.46 636.359 1187.25 636.359 1175.88V1116.86C636.359 1105.49 645.593 1096.27 656.982 1096.27C668.371 1096.27 677.605 1105.49 677.605 1116.86V1175.88C677.605 1187.25 668.371 1196.46 656.982 1196.46Z" fill="#8BC34A"/>
<path fill-rule="evenodd" clip-rule="evenodd" d="M755.969 1179.96C755.969 1168.57 765.211 1159.33 776.611 1159.33H940.375C951.775 1159.33 961.017 1168.57 961.017 1179.96C961.017 1191.35 951.775 1200.59 940.375 1200.59H776.611C765.211 1200.59 755.969 1191.35 755.969 1179.96Z" fill="#FFC107"/>
<path fill-rule="evenodd" clip-rule="evenodd" d="M0.589844 32.4177C0.589844 21.0248 9.82293 11.7891 21.2125 11.7891H116.077C127.466 11.7891 136.7 21.0248 136.7 32.4177C136.7 43.8107 127.466 53.0464 116.077 53.0464H21.2125C9.82293 53.0464 0.589843 43.8107 0.589844 32.4177Z" fill="#FF5722"/>
<path fill-rule="evenodd" clip-rule="evenodd" d="M945.697 1200.59C934.308 1200.59 925.074 1191.35 925.074 1179.96C925.074 1168.57 934.308 1159.33 945.697 1159.33C957.086 1159.33 966.32 1168.57 966.32 1179.96C966.32 1191.35 957.086 1200.59 945.697 1200.59Z" fill="#FF5722"/>
<path fill-rule="evenodd" clip-rule="evenodd" d="M885.629 142.57C850.754 142.57 822.485 170.848 822.485 205.732C822.485 217.106 813.266 226.328 801.895 226.328C790.522 226.328 781.305 217.106 781.305 205.732C781.305 148.098 828.012 101.377 885.629 101.377C897 101.377 906.219 110.598 906.219 121.973C906.219 133.348 897 142.57 885.629 142.57Z" fill="#FF5722"/>
<path fill-rule="evenodd" clip-rule="evenodd" d="M787.345 191.112C795.398 183.056 808.456 183.056 816.51 191.112C824.564 199.169 824.564 212.229 816.51 220.286C808.456 228.342 795.398 228.342 787.345 220.286C779.291 212.229 779.291 199.169 787.345 191.112Z" fill="#3F51B5"/>
<path fill-rule="evenodd" clip-rule="evenodd" d="M1196.11 794.5C1269.01 794.5 1328.1 735.39 1328.1 662.476C1328.1 651.084 1337.33 641.848 1348.72 641.848C1360.11 641.848 1369.35 651.084 1369.35 662.476C1369.35 758.177 1291.79 835.757 1196.11 835.757C1184.73 835.757 1175.49 826.521 1175.49 815.129C1175.49 803.736 1184.73 794.5 1196.11 794.5Z" fill="#8BC34A"/>
<path fill-rule="evenodd" clip-rule="evenodd" d="M1363.31 677.063C1355.25 685.119 1342.19 685.119 1334.14 677.063C1326.09 669.007 1326.09 655.945 1334.14 647.89C1342.19 639.834 1355.25 639.834 1363.31 647.89C1371.36 655.945 1371.36 669.007 1363.31 677.063Z" fill="#3F51B5"/>
<path fill-rule="evenodd" clip-rule="evenodd" d="M1421.64 677.063C1413.58 685.119 1400.52 685.119 1392.48 677.063C1384.42 669.007 1384.42 655.945 1392.48 647.89C1400.52 639.834 1413.58 639.834 1421.64 647.89C1429.69 655.945 1429.69 669.007 1421.64 677.063Z" fill="#3F51B5"/>
<path fill-rule="evenodd" clip-rule="evenodd" d="M1559.63 754.489C1460.76 754.489 1380.61 834.663 1380.61 933.563C1380.61 944.974 1371.36 954.225 1359.95 954.225C1348.55 954.225 1339.3 944.974 1339.3 933.563C1339.3 811.839 1437.94 713.164 1559.63 713.164C1571.03 713.164 1580.29 722.415 1580.29 733.826C1580.29 745.238 1571.03 754.489 1559.63 754.489Z" fill="#FFC107"/>
<path fill-rule="evenodd" clip-rule="evenodd" d="M1142.5 239.779C1142.55 251.172 1133.37 260.455 1121.98 260.511C1110.59 260.569 1101.31 251.381 1101.25 239.986C1101.19 228.594 1110.38 219.312 1121.77 219.254C1133.16 219.196 1142.44 228.386 1142.5 239.779Z" fill="#FF5722"/>
<path fill-rule="evenodd" clip-rule="evenodd" d="M1331.05 30.5459C1331.1 41.9387 1321.92 51.2211 1310.53 51.2786C1299.14 51.3362 1289.86 42.1472 1289.8 30.7544C1289.74 19.3617 1298.93 10.0794 1310.32 10.0218C1321.71 9.96413 1330.99 19.1532 1331.05 30.5459Z" fill="#FF5722"/>
<path fill-rule="evenodd" clip-rule="evenodd" d="M1142.5 32.3135C1142.55 43.7063 1133.37 52.9887 1121.98 53.0462C1110.59 53.1038 1101.31 43.9148 1101.25 32.522C1101.19 21.1293 1110.38 11.847 1121.77 11.7893C1133.16 11.7317 1142.44 20.9208 1142.5 32.3135Z" fill="#FF5722"/>
<path fill-rule="evenodd" clip-rule="evenodd" d="M1142.5 87.126C1142.55 98.5188 1133.37 107.801 1121.98 107.859C1110.59 107.916 1101.31 98.7273 1101.25 87.3345C1101.19 75.9418 1110.38 66.6595 1121.77 66.6018C1133.16 66.5442 1142.44 75.7333 1142.5 87.126Z" fill="#FF5722"/>
<path d="M1549.04 683.105H1467.17C1455.78 683.105 1446.54 673.869 1446.54 662.476C1446.54 651.084 1455.78 641.848 1467.17 641.848H1549.04C1560.44 641.848 1569.68 651.084 1569.68 662.476C1569.68 673.869 1560.44 683.105 1549.04 683.105Z" fill="#E2E8F0"/>
<path fill-rule="evenodd" clip-rule="evenodd" d="M1580.29 733.793C1580.29 745.185 1571.05 754.421 1559.67 754.421C1548.28 754.421 1539.04 745.185 1539.04 733.793C1539.04 722.4 1548.28 713.164 1559.67 713.164C1571.05 713.164 1580.29 722.4 1580.29 733.793Z" fill="#FF5722"/>
<path fill-rule="evenodd" clip-rule="evenodd" d="M1344.54 184.776C1344.54 165.763 1329.14 150.35 1310.13 150.35C1291.12 150.35 1275.71 165.763 1275.71 184.776C1275.71 203.788 1291.12 219.202 1310.13 219.202C1321.53 219.202 1330.78 228.45 1330.78 239.857C1330.78 251.264 1321.53 260.513 1310.13 260.513C1268.31 260.513 1234.41 226.605 1234.41 184.776C1234.41 142.947 1268.31 109.039 1310.13 109.039C1351.95 109.039 1385.84 142.947 1385.84 184.776C1385.84 196.183 1376.59 205.431 1365.19 205.431C1353.79 205.431 1344.54 196.183 1344.54 184.776Z" fill="#3F51B5"/>
<path d="M1450.7 42.4906C1431.75 42.4906 1416.4 57.9036 1416.4 76.9164C1416.4 95.9292 1431.75 111.342 1450.7 111.342C1462.06 111.342 1471.28 120.59 1471.28 131.998C1471.28 143.405 1462.06 152.653 1450.7 152.653C1409.02 152.653 1375.24 118.745 1375.24 76.9164C1375.24 35.0881 1409.02 1.17969 1450.7 1.17969C1462.06 1.17969 1471.28 10.4275 1471.28 21.8352C1471.28 33.2429 1462.06 42.4906 1450.7 42.4906Z" fill="#E2E8F0"/>
<path fill-rule="evenodd" clip-rule="evenodd" d="M1332.23 239.883C1332.23 251.275 1322.99 260.511 1311.6 260.511C1300.21 260.511 1290.98 251.275 1290.98 239.883C1290.98 228.49 1300.21 219.254 1311.6 219.254C1322.99 219.254 1332.23 228.49 1332.23 239.883Z" fill="#FF5722"/>
<path fill-rule="evenodd" clip-rule="evenodd" d="M1472.46 132.025C1472.46 143.418 1463.22 152.654 1451.84 152.654C1440.45 152.654 1431.21 143.418 1431.21 132.025C1431.21 120.632 1440.45 111.396 1451.84 111.396C1463.22 111.396 1472.46 120.632 1472.46 132.025Z" fill="#3F51B5"/>
<path fill-rule="evenodd" clip-rule="evenodd" d="M1387.61 239.883C1387.61 251.275 1378.37 260.511 1366.99 260.511C1355.6 260.511 1346.37 251.275 1346.37 239.883C1346.37 228.49 1355.6 219.254 1366.99 219.254C1378.37 219.254 1387.61 228.49 1387.61 239.883Z" fill="#3F51B5"/>
<path fill-rule="evenodd" clip-rule="evenodd" d="M1442.41 239.883C1442.41 251.275 1433.17 260.511 1421.79 260.511C1410.4 260.511 1401.16 251.275 1401.16 239.883C1401.16 228.49 1410.4 219.254 1421.79 219.254C1433.17 219.254 1442.41 228.49 1442.41 239.883Z" fill="#3F51B5"/>
<path fill-rule="evenodd" clip-rule="evenodd" d="M1474.23 76.033C1474.23 87.4259 1464.99 96.6617 1453.6 96.6617C1442.22 96.6617 1432.98 87.4259 1432.98 76.033C1432.98 64.64 1442.22 55.4043 1453.6 55.4043C1464.99 55.4043 1474.23 64.64 1474.23 76.033Z" fill="#FF5722"/>
<path fill-rule="evenodd" clip-rule="evenodd" d="M1529.03 76.033C1529.03 87.4259 1519.79 96.6617 1508.4 96.6617C1497.02 96.6617 1487.78 87.4259 1487.78 76.033C1487.78 64.64 1497.02 55.4043 1508.4 55.4043C1519.79 55.4043 1529.03 64.64 1529.03 76.033Z" fill="#FF5722"/>
<path fill-rule="evenodd" clip-rule="evenodd" d="M1584.41 76.033C1584.41 87.4259 1575.17 96.6617 1563.79 96.6617C1552.4 96.6617 1543.16 87.4259 1543.16 76.033C1543.16 64.64 1552.4 55.4043 1563.79 55.4043C1575.17 55.4043 1584.41 64.64 1584.41 76.033Z" fill="#FF5722"/>
<path fill-rule="evenodd" clip-rule="evenodd" d="M1508.99 443.812C1497.61 443.812 1488.37 434.576 1488.37 423.183C1488.37 411.791 1497.61 402.555 1508.99 402.555C1520.37 402.555 1529.61 411.791 1529.61 423.183C1529.61 434.576 1520.37 443.812 1508.99 443.812Z" fill="#3F51B5"/>
</g>
</svg>
