<svg width="1600" height="1200" viewBox="0 0 1600 1200" fill="none" xmlns="http://www.w3.org/2000/svg">
<rect width="1600" height="1200" fill="white"/>
<rect width="1600" height="1200" fill="#F7FAFC"/>
<mask id="mask0_0_264" style="mask-type:alpha" maskUnits="userSpaceOnUse" x="0" y="0" width="1600" height="1200">
<rect width="1600" height="1200" fill="#F7FAFC"/>
</mask>
<g mask="url(#mask0_0_264)">
<path d="M360.6 480C426.874 480 480.6 426.274 480.6 360C480.6 293.726 426.874 240 360.6 240C294.325 240 240.6 293.726 240.6 360C240.6 426.274 294.325 480 360.6 480Z" fill="#E91E63"/>
<path d="M361.196 431.044C400.103 431.044 431.644 399.503 431.644 360.596C431.644 321.689 400.103 290.148 361.196 290.148C322.289 290.148 290.748 321.689 290.748 360.596C290.748 399.503 322.289 431.044 361.196 431.044Z" fill="#2D3748"/>
<path d="M361.197 397.612C381.639 397.612 398.211 381.04 398.211 360.597C398.211 340.154 381.639 323.582 361.197 323.582C340.754 323.582 324.182 340.154 324.182 360.597C324.182 381.04 340.754 397.612 361.197 397.612Z" fill="#03A9F4"/>
<path d="M840 480C906.274 480 960 426.274 960 360C960 293.726 906.274 240 840 240C773.726 240 720 293.726 720 360C720 426.274 773.726 480 840 480Z" fill="#FF9800"/>
<path d="M840.596 431.044C879.503 431.044 911.044 399.503 911.044 360.596C911.044 321.689 879.503 290.148 840.596 290.148C801.689 290.148 770.148 321.689 770.148 360.596C770.148 399.503 801.689 431.044 840.596 431.044Z" fill="#2D3748"/>
<path d="M840.597 397.612C861.04 397.612 877.612 381.04 877.612 360.597C877.612 340.154 861.04 323.582 840.597 323.582C820.154 323.582 803.582 340.154 803.582 360.597C803.582 381.04 820.154 397.612 840.597 397.612Z" fill="#E2E8F0"/>
<path d="M1320 720C1386.27 720 1440 773.726 1440 840C1440 906.274 1386.27 960 1320 960C1253.73 960 1200 906.274 1200 840C1200 773.726 1253.73 720 1320 720Z" fill="#FF9800"/>
<path d="M1320.6 768.956C1359.5 768.956 1391.04 800.497 1391.04 839.404C1391.04 878.311 1359.5 909.852 1320.6 909.852C1281.69 909.852 1250.15 878.311 1250.15 839.404C1250.15 800.497 1281.69 768.956 1320.6 768.956Z" fill="#2D3748"/>
<path d="M1320.6 802.388C1341.04 802.388 1357.61 818.96 1357.61 839.403C1357.61 859.846 1341.04 876.418 1320.6 876.418C1300.15 876.418 1283.58 859.846 1283.58 839.403C1283.58 818.96 1300.15 802.388 1320.6 802.388Z" fill="#E2E8F0"/>
<path d="M1081.77 420.738C1081.77 453.305 1108.17 479.706 1140.74 479.706C1173.3 479.706 1199.71 453.305 1199.71 420.738C1199.71 388.17 1173.3 361.77 1140.74 361.77C1108.17 361.77 1081.77 388.17 1081.77 420.738Z" fill="#E91E63"/>
<path d="M960.295 420.738C960.295 453.305 986.696 479.706 1019.26 479.706C1051.83 479.706 1078.23 453.305 1078.23 420.738C1078.23 388.17 1051.83 361.77 1019.26 361.77C986.696 361.77 960.295 388.17 960.295 420.738Z" fill="#FF9800"/>
<path d="M1081.77 301.622C1081.77 334.19 1108.17 360.59 1140.74 360.59C1173.3 360.59 1199.71 334.19 1199.71 301.622C1199.71 269.055 1173.3 242.654 1140.74 242.654C1108.17 242.654 1081.77 269.055 1081.77 301.622Z" fill="#FF9800"/>
<path d="M960 240V300.147C960 333.366 987.061 360.295 1020.44 360.295C1053.82 360.295 1080.88 333.366 1080.88 300.147C1080.88 266.929 1053.82 240 1020.44 240H960Z" fill="#03A9F4"/>
<rect width="122.654" height="122.654" transform="matrix(-1 0 0 1 1381.62 298.969)" fill="#E2E8F0"/>
<path d="M1319.4 307.73L1266.52 360.604L1319.4 413.477L1372.27 360.604L1319.4 307.73Z" fill="#03A9F4"/>
<path d="M1417 262.998H1344.47C1344.47 303.056 1376.94 335.529 1417 335.529L1417 262.998Z" fill="#E91E63"/>
<path d="M1417 457.003V384.473C1376.94 384.473 1344.47 416.946 1344.47 457.003H1417Z" fill="#E91E63"/>
<path d="M1224.77 457.003H1297.3C1297.3 416.946 1264.82 384.473 1224.77 384.473V457.003Z" fill="#E91E63"/>
<path d="M1224.77 262.998V335.529C1264.82 335.529 1297.3 303.056 1297.3 262.998L1224.77 262.998Z" fill="#E91E63"/>
<path d="M1560.82 994.684L1475.69 1079.87L1560.82 1165.06L1645.94 1079.87L1560.82 994.684Z" fill="#2D3748"/>
<path d="M1591.13 1049.54H1530.51V1110.2H1591.13V1049.54Z" fill="#03A9F4"/>
<path d="M1080 240C1146.27 240 1200 186.274 1200 120C1200 53.7258 1146.27 0 1080 0L960 0L960 120C960 186.274 1013.73 240 1080 240Z" fill="#E2E8F0"/>
<path d="M1031.76 143.518C1071.39 143.518 1103.52 111.39 1103.52 71.7588C1103.52 32.1275 1071.39 -1.52588e-05 1031.76 -1.52588e-05H960V71.7588C960 111.39 992.128 143.518 1031.76 143.518Z" fill="#2D3748"/>
<path d="M1080 194.473C1120.46 194.473 1153.27 161.67 1153.27 121.206C1153.27 80.7424 1120.46 47.94 1080 47.94C1039.54 47.94 1006.73 80.7424 1006.73 121.206C1006.73 161.67 1039.54 194.473 1080 194.473Z" fill="#03A9F4"/>
<path d="M1080 164.096C1103.69 164.096 1122.89 144.893 1122.89 121.206C1122.89 97.5191 1103.69 78.3168 1080 78.3168C1056.31 78.3168 1037.11 97.5191 1037.11 121.206C1037.11 144.893 1056.31 164.096 1080 164.096Z" fill="#2D3748"/>
<path d="M1200 120.603V240L1319.4 240C1386 240 1440 186.004 1440 119.397V0L1320.6 0C1254 0 1200 53.9958 1200 120.603Z" fill="#03A9F4"/>
<path d="M1251.86 120C1251.86 158.965 1283.45 190.553 1322.41 190.553C1361.38 190.553 1392.96 158.965 1392.96 120V49.4473L1322.41 49.4473C1283.45 49.4473 1251.86 81.0348 1251.86 120Z" fill="#2D3748"/>
<path d="M1200 192.604V240.604H1248C1287.76 240.604 1320 208.368 1320 168.604V120.604L1272 120.604C1232.24 120.604 1200 152.839 1200 192.604Z" fill="#FF9800"/>
<path d="M1680 120.603V240L1560.6 240C1494 240 1440 186.004 1440 119.397V0L1559.4 0C1626 0 1680 53.9958 1680 120.603Z" fill="#E91E63"/>
<path d="M1628.14 120C1628.14 158.965 1596.55 190.553 1557.59 190.553C1518.62 190.553 1487.04 158.965 1487.04 120V49.4473L1557.59 49.4473C1596.55 49.4473 1628.14 81.0348 1628.14 120Z" fill="#2D3748"/>
<path d="M1680 192.604V240.604H1632C1592.24 240.604 1560 208.368 1560 168.604V120.604L1608 120.604C1647.76 120.604 1680 152.839 1680 192.604Z" fill="#FF9800"/>
<path d="M1560 720C1493.73 720 1440 773.726 1440 840C1440 906.274 1493.73 960 1560 960H1680V840C1680 773.726 1626.27 720 1560 720Z" fill="#E2E8F0"/>
<path d="M1680 888.241C1680 848.61 1647.87 816.482 1608.24 816.482V816.482C1568.61 816.482 1536.48 848.61 1536.48 888.241V888.241C1536.48 927.873 1568.61 960 1608.24 960H1680V888.241Z" fill="#E91E63"/>
<path d="M1560 765.527C1519.54 765.527 1486.73 798.33 1486.73 838.794C1486.73 879.258 1519.54 912.06 1560 912.06C1600.46 912.06 1633.27 879.258 1633.27 838.794C1633.27 798.33 1600.46 765.527 1560 765.527Z" fill="#03A9F4"/>
<path d="M1560 795.904C1536.31 795.904 1517.11 815.107 1517.11 838.794C1517.11 862.481 1536.31 881.683 1560 881.683C1583.69 881.683 1602.89 862.481 1602.89 838.794C1602.89 815.107 1583.69 795.904 1560 795.904Z" fill="#2D3748"/>
<path d="M360.294 700.492C415.984 700.492 461.13 655.368 461.13 599.704C461.13 544.04 415.984 498.916 360.294 498.916C304.605 498.916 259.459 544.04 259.459 599.704C259.459 655.368 304.605 700.492 360.294 700.492Z" fill="#E2E8F0"/>
<path d="M480 480C480 545.948 426.67 599.409 360.885 599.409C360.885 533.461 414.215 480 480 480Z" fill="#E91E63"/>
<path d="M359.115 595.931V599.409H355.646C291.776 599.409 240 547.505 240 483.478V480H243.469C307.339 480 359.115 531.904 359.115 595.931Z" fill="#03A9F4"/>
<path d="M355.646 600.592H359.115V604.07C359.115 668.097 307.339 720.001 243.469 720.001H240V716.523C240 652.496 291.777 600.592 355.646 600.592Z" fill="#E91E63"/>
<path d="M480 716.523V720.001H476.531C412.661 720.001 360.885 668.097 360.885 604.07V600.592H364.354C428.223 600.592 480 652.496 480 716.523Z" fill="#03A9F4"/>
<path d="M1080.03 700.27C1135.72 700.27 1180.87 655.125 1180.87 599.435C1180.87 543.745 1135.72 498.6 1080.03 498.6C1024.34 498.6 979.199 543.745 979.199 599.435C979.199 655.125 1024.34 700.27 1080.03 700.27Z" fill="#E2E8F0"/>
<path d="M1076.5 720C1012.16 720 960 667.839 960 603.495V600H963.495C1027.84 600 1080 652.161 1080 716.505V720H1076.5Z" fill="#E91E63"/>
<path d="M1196.5 600H1200V603.495C1200 667.839 1147.84 720 1083.5 720H1080V716.505C1080 652.161 1132.16 600 1196.5 600Z" fill="#03A9F4"/>
<path d="M1083.5 600H1080V596.505C1080 532.161 1132.16 480 1196.5 480H1200V483.495C1200 547.839 1147.84 600 1083.5 600Z" fill="#E91E63"/>
<path d="M963.495 480C1027.84 480 1080 532.161 1080 596.505V600H1076.5C1012.16 600 960 547.839 960 483.495V480H963.495Z" fill="#03A9F4"/>
<path d="M19.7296 840.035C19.7296 895.724 64.8752 940.87 120.565 940.87C176.255 940.87 221.4 895.724 221.4 840.035C221.4 784.345 176.255 739.199 120.565 739.199C64.8752 739.199 19.7296 784.345 19.7296 840.035Z" fill="#E2E8F0"/>
<path d="M0 836.505C0 772.161 52.161 720 116.505 720H120V723.495C120 787.839 67.839 840 3.49515 840H0V836.505Z" fill="#E91E63"/>
<path d="M120 956.505V960H116.505C52.161 960 0 907.839 0 843.495V840H3.49515C67.839 840 120 892.161 120 956.505Z" fill="#03A9F4"/>
<path d="M120 843.495V840H123.495C187.839 840 240 892.161 240 956.505V960H236.505C172.161 960 120 907.839 120 843.495Z" fill="#E91E63"/>
<path d="M240 723.495C240 787.839 187.839 840 123.495 840H120V836.505C120 772.161 172.161 720 236.505 720H240V723.495Z" fill="#03A9F4"/>
<path d="M720 0V240H480C480 107.452 587.452 0 720 0Z" fill="#E91E63"/>
<path d="M720.001 103.783V239.999H583.449C583.449 164.769 644.586 103.783 720.001 103.783Z" fill="#E2E8F0"/>
<path d="M720 177.494V240H657.34C657.34 205.479 685.394 177.494 720 177.494Z" fill="#2D3748"/>
<path d="M1680 720H1440V480C1572.55 480 1680 587.452 1680 720Z" fill="#E91E63"/>
<path d="M1576.22 720.001H1440V583.449C1515.23 583.449 1576.22 644.586 1576.22 720.001Z" fill="#E2E8F0"/>
<path d="M1502.51 720H1440V657.34C1474.52 657.34 1502.51 685.394 1502.51 720Z" fill="#2D3748"/>
<path d="M0 720L0 480H240C240 612.548 132.548 720 0 720Z" fill="#03A9F4"/>
<path d="M0.000579834 616.551L0.000579834 479.999H136.217C136.217 555.414 75.2307 616.551 0.000579834 616.551Z" fill="#E2E8F0"/>
<path d="M-0.000282288 542.66L-0.000282288 480H62.5059C62.5059 514.606 34.5209 542.66 -0.000282288 542.66Z" fill="#2D3748"/>
<path d="M1440 480V720H1200C1200 587.452 1307.45 480 1440 480Z" fill="#03A9F4"/>
<path d="M1440 583.449V720.001H1303.78C1303.78 644.586 1364.77 583.449 1440 583.449Z" fill="#E2E8F0"/>
<path d="M1440 657.34V720H1377.49C1377.49 685.394 1405.48 657.34 1440 657.34Z" fill="#2D3748"/>
<path d="M120.6 0C186.874 0 240.6 53.7258 240.6 120C240.6 186.274 186.874 240 120.6 240C54.3254 240 0.599609 186.274 0.599609 120C0.599609 53.7258 54.3254 0 120.6 0Z" fill="#03A9F4"/>
<path d="M121.189 48.3535C161.084 48.3535 193.425 80.6946 193.425 120.589C193.425 160.484 161.084 192.825 121.189 192.825C81.2942 192.825 48.9531 160.484 48.9531 120.589C48.9531 80.6946 81.2942 48.3535 121.189 48.3535Z" fill="#E2E8F0"/>
<path d="M122.368 83.1445C143.7 83.1445 160.992 100.437 160.992 121.769C160.992 143.1 143.7 160.393 122.368 160.393C101.037 160.393 83.7441 143.1 83.7441 121.769C83.7441 100.437 101.037 83.1445 122.368 83.1445Z" fill="#2D3748"/>
<path d="M240.6 94.3496L240.6 240.001L94.9492 240.001C94.9492 159.56 160.159 94.3496 240.6 94.3496Z" fill="#E91E63"/>
<path d="M1320 960C1386.27 960 1440 1013.73 1440 1080C1440 1146.27 1386.27 1200 1320 1200C1253.73 1200 1200 1146.27 1200 1080C1200 1013.73 1253.73 960 1320 960Z" fill="#03A9F4"/>
<path d="M1320.59 1008.35C1360.48 1008.35 1392.83 1040.69 1392.83 1080.59C1392.83 1120.48 1360.48 1152.83 1320.59 1152.83C1280.69 1152.83 1248.35 1120.48 1248.35 1080.59C1248.35 1040.69 1280.69 1008.35 1320.59 1008.35Z" fill="#E2E8F0"/>
<path d="M1321.77 1043.14C1343.1 1043.14 1360.39 1060.44 1360.39 1081.77C1360.39 1103.1 1343.1 1120.39 1321.77 1120.39C1300.44 1120.39 1283.14 1103.1 1283.14 1081.77C1283.14 1060.44 1300.44 1043.14 1321.77 1043.14Z" fill="#2D3748"/>
<path d="M1440 1054.35V1200H1294.35C1294.35 1119.56 1359.56 1054.35 1440 1054.35Z" fill="#E91E63"/>
<path d="M299.567 117.336C267 117.336 240.599 90.935 240.599 58.3679C240.599 25.8007 267 -0.600182 299.567 -0.600182C332.134 -0.600182 358.535 25.8007 358.535 58.3679C358.535 90.935 332.134 117.336 299.567 117.336Z" fill="#FF9800"/>
<path d="M299.567 239.4C267 239.4 240.599 212.999 240.599 180.432C240.599 147.865 267 121.464 299.567 121.464C332.134 121.464 358.535 147.865 358.535 180.432C358.535 212.999 332.134 239.4 299.567 239.4Z" fill="#E91E63"/>
<path d="M419.272 117.336C386.705 117.336 360.304 90.935 360.304 58.3679C360.304 25.8007 386.705 -0.600182 419.272 -0.600182C451.839 -0.600182 478.24 25.8007 478.24 58.3679C478.24 90.935 451.839 117.336 419.272 117.336Z" fill="#E91E63"/>
<path d="M480.6 239.4H420.157C386.776 239.4 359.715 212.339 359.715 178.958C359.715 145.577 386.776 118.516 420.157 118.516C453.539 118.516 480.6 145.577 480.6 178.958V239.4Z" fill="#03A9F4"/>
<path d="M601.77 779.262C601.77 746.695 628.17 720.294 660.738 720.294C693.305 720.294 719.706 746.695 719.706 779.262C719.706 811.83 693.305 838.23 660.738 838.23C628.17 838.23 601.77 811.83 601.77 779.262Z" fill="#E91E63"/>
<path d="M480.295 779.262C480.295 746.695 506.696 720.294 539.263 720.294C571.83 720.294 598.231 746.695 598.231 779.262C598.231 811.83 571.83 838.23 539.263 838.23C506.696 838.23 480.295 811.83 480.295 779.262Z" fill="#FF9800"/>
<path d="M601.77 898.378C601.77 865.81 628.17 839.41 660.738 839.41C693.305 839.41 719.706 865.81 719.706 898.378C719.706 930.945 693.305 957.346 660.738 957.346C628.17 957.346 601.77 930.945 601.77 898.378Z" fill="#FF9800"/>
<path d="M480 960V899.853C480 866.634 507.061 839.705 540.442 839.705C573.824 839.705 600.885 866.634 600.885 899.853C600.885 933.071 573.824 960 540.442 960H480Z" fill="#03A9F4"/>
<path d="M58.9675 1077.94C26.4003 1077.94 -0.000572205 1051.53 -0.000572205 1018.97C-0.000572205 986.4 26.4003 959.999 58.9675 959.999C91.5346 959.999 117.936 986.4 117.936 1018.97C117.936 1051.53 91.5346 1077.94 58.9675 1077.94Z" fill="#E91E63"/>
<path d="M58.9675 1200C26.4003 1200 -0.000572205 1173.6 -0.000572205 1141.03C-0.000572205 1108.46 26.4003 1082.06 58.9675 1082.06C91.5346 1082.06 117.936 1108.46 117.936 1141.03C117.936 1173.6 91.5346 1200 58.9675 1200Z" fill="#FF9800"/>
<path d="M178.673 1077.94C146.105 1077.94 119.705 1051.53 119.705 1018.97C119.705 986.4 146.105 959.999 178.673 959.999C211.24 959.999 237.641 986.4 237.641 1018.97C237.641 1051.53 211.24 1077.94 178.673 1077.94Z" fill="#FF9800"/>
<path d="M240 1200H179.558C146.176 1200 119.115 1172.94 119.115 1139.56C119.115 1106.18 146.176 1079.12 179.558 1079.12C212.939 1079.12 240 1106.18 240 1139.56V1200Z" fill="#03A9F4"/>
<rect x="901.621" y="901.031" width="122.654" height="122.654" transform="rotate(-180 901.621 901.031)" fill="#E2E8F0"/>
<path d="M839.396 892.27L786.523 839.396L839.396 786.523L892.27 839.396L839.396 892.27Z" fill="#03A9F4"/>
<path d="M937.002 937.002H864.471C864.471 896.944 896.944 864.471 937.002 864.471L937.002 937.002Z" fill="#E91E63"/>
<path d="M937.002 742.997V815.527C896.944 815.527 864.471 783.054 864.471 742.997H937.002Z" fill="#E91E63"/>
<path d="M744.766 742.997H817.297C817.297 783.054 784.824 815.527 744.766 815.527V742.997Z" fill="#E91E63"/>
<path d="M744.766 937.002V864.471C784.824 864.471 817.297 896.944 817.297 937.002H744.766Z" fill="#E91E63"/>
<path d="M120.816 445.316L35.6899 360.128L120.816 274.939L205.943 360.128L120.816 445.316Z" fill="#FF9800"/>
<path d="M120.816 403.023L77.9522 360.128L120.816 317.232L163.681 360.128L120.816 403.023Z" fill="#E2E8F0"/>
<rect x="828.543" y="109.75" width="74.7739" height="74.7739" transform="rotate(-180 828.543 109.75)" fill="#E2E8F0"/>
<rect x="828.543" y="203.82" width="74.7739" height="74.7739" transform="rotate(-180 828.543 203.82)" fill="#E2E8F0"/>
<rect x="925.025" y="109.75" width="74.7739" height="74.7739" transform="rotate(-180 925.025 109.75)" fill="#E2E8F0"/>
<rect x="925.025" y="203.82" width="74.7739" height="74.7739" transform="rotate(-180 925.025 203.82)" fill="#E2E8F0"/>
<rect x="808.041" y="89.248" width="34.9749" height="34.9749" transform="rotate(-180 808.041 89.248)" fill="#2D3748"/>
<rect x="808.041" y="183.318" width="34.9749" height="34.9749" transform="rotate(-180 808.041 183.318)" fill="#2D3748"/>
<rect x="904.523" y="89.248" width="34.9749" height="34.9749" transform="rotate(-180 904.523 89.248)" fill="#2D3748"/>
<rect x="904.523" y="183.318" width="34.9749" height="34.9749" transform="rotate(-180 904.523 183.318)" fill="#2D3748"/>
<path d="M601.416 685.316L516.289 600.127L601.416 514.938L686.543 600.127L601.416 685.316Z" fill="#2D3748"/>
<path d="M631.727 630.459H571.107V569.795H631.727V630.459Z" fill="#03A9F4"/>
<path d="M600 960C666.274 960 720 1013.73 720 1080C720 1146.27 666.274 1200 600 1200H480L480 1080C480 1013.73 533.726 960 600 960Z" fill="#E2E8F0"/>
<path d="M551.759 1056.48C591.39 1056.48 623.518 1088.61 623.518 1128.24C623.518 1167.87 591.39 1200 551.759 1200H480L480 1128.24C480 1088.61 512.128 1056.48 551.759 1056.48Z" fill="#2D3748"/>
<path d="M600.001 1005.53C640.465 1005.53 673.267 1038.33 673.267 1078.79C673.267 1119.26 640.465 1152.06 600.001 1152.06C559.537 1152.06 526.734 1119.26 526.734 1078.79C526.734 1038.33 559.537 1005.53 600.001 1005.53Z" fill="#03A9F4"/>
<path d="M600.001 1035.9C623.688 1035.9 642.89 1055.11 642.89 1078.79C642.89 1102.48 623.688 1121.68 600.001 1121.68C576.314 1121.68 557.111 1102.48 557.111 1078.79C557.111 1055.11 576.314 1035.9 600.001 1035.9Z" fill="#2D3748"/>
<path d="M360 720L480 720V840C480 906.274 426.274 960 360 960H240L240 840C240 773.726 293.726 720 360 720Z" fill="#03A9F4"/>
<path d="M360 771.859C398.965 771.859 430.553 803.447 430.553 842.412C430.553 881.377 398.965 912.965 360 912.965H289.447L289.447 842.412C289.447 803.447 321.035 771.859 360 771.859Z" fill="#2D3748"/>
<path d="M432.604 720H480.604V768C480.604 807.765 448.368 840 408.604 840H360.604V792C360.604 752.235 392.839 720 432.604 720Z" fill="#E2E8F0"/>
<path d="M720 1079.4V960H839.397C906.004 960 960 1014 960 1080.6V1200H840.603C773.996 1200 720 1146 720 1079.4Z" fill="#03A9F4"/>
<path d="M771.859 1080C771.859 1041.03 803.447 1009.45 842.412 1009.45C881.377 1009.45 912.965 1041.03 912.965 1080V1150.55H842.412C803.447 1150.55 771.859 1118.97 771.859 1080Z" fill="#2D3748"/>
<path d="M720 1007.4V959.396H768C807.765 959.396 840 991.632 840 1031.4V1079.4H792C752.235 1079.4 720 1047.16 720 1007.4Z" fill="#FF9800"/>
<path d="M840 720C773.726 720 720 666.274 720 600C720 533.726 773.726 480 840 480H960L960 600C960 666.274 906.274 720 840 720Z" fill="#E2E8F0"/>
<path d="M960 551.759C960 591.39 927.872 623.518 888.241 623.518V623.518C848.61 623.518 816.482 591.39 816.482 551.759V551.759C816.482 512.127 848.61 480 888.241 480H960V551.759Z" fill="#E91E63"/>
<path d="M839.999 674.473C799.535 674.473 766.733 641.67 766.733 601.206C766.733 560.742 799.535 527.94 839.999 527.94C880.463 527.94 913.266 560.742 913.266 601.206C913.266 641.67 880.463 674.473 839.999 674.473Z" fill="#03A9F4"/>
<path d="M839.999 644.096C816.312 644.096 797.11 624.893 797.11 601.206C797.11 577.519 816.312 558.317 839.999 558.317C863.686 558.317 882.889 577.519 882.889 601.206C882.889 624.893 863.686 644.096 839.999 644.096Z" fill="#2D3748"/>
<path d="M1560.29 460.492C1615.98 460.492 1661.13 415.368 1661.13 359.704C1661.13 304.04 1615.98 258.916 1560.29 258.916C1504.6 258.916 1459.46 304.04 1459.46 359.704C1459.46 415.368 1504.6 460.492 1560.29 460.492Z" fill="#E2E8F0"/>
<path d="M1680 240C1680 305.948 1626.67 359.409 1560.88 359.409C1560.88 293.461 1614.21 240 1680 240Z" fill="#E91E63"/>
<path d="M1559.12 355.931V359.409H1555.65C1491.78 359.409 1440 307.505 1440 243.478V240H1443.47C1507.34 240 1559.12 291.904 1559.12 355.931Z" fill="#03A9F4"/>
<path d="M1555.65 360.592H1559.12V364.07C1559.12 428.097 1507.34 480.001 1443.47 480.001H1440V476.523C1440 412.496 1491.78 360.592 1555.65 360.592Z" fill="#E91E63"/>
<path d="M1680 476.523V480.001H1676.53C1612.66 480.001 1560.88 428.097 1560.88 364.07V360.592H1564.35C1628.22 360.592 1680 412.496 1680 476.523Z" fill="#03A9F4"/>
<path d="M539.4 240H660.6L600 300.6L539.4 240Z" fill="#FF9800"/>
<path d="M720 240V480H480L720 240Z" fill="#03A9F4"/>
<path d="M480 240L720 480H480V240Z" fill="#E2E8F0"/>
<path d="M420.6 1200H299.4L360 1139.4L420.6 1200Z" fill="#03A9F4"/>
<path d="M240 1200L240 960H480L240 1200Z" fill="#E2E8F0"/>
<path d="M480 1200L240 960H480V1200Z" fill="#E91E63"/>
<path d="M1141.2 960L1020 960L1080.6 899.4L1141.2 960Z" fill="#FF9800"/>
<path d="M960.6 960V720H1200.6L960.6 960Z" fill="#03A9F4"/>
<path d="M1200.6 960L960.6 720H1200.6V960Z" fill="#E2E8F0"/>
<path d="M1020 960H1141.2L1080.6 1020.6L1020 960Z" fill="#FF9800"/>
<path d="M1200.6 960V1200H960.6L1200.6 960Z" fill="#03A9F4"/>
<path d="M960.6 960L1200.6 1200H960.6V960Z" fill="#E2E8F0"/>
</g>
</svg>
